<?xml version="1.0" standalone="no"?><!DOCTYPE svg PUBLIC "-//W3C//DTD SVG 1.1//EN" "http://www.w3.org/Graphics/SVG/1.1/DTD/svg11.dtd"><svg t="1752214475550" class="icon" viewBox="0 0 1024 1024" version="1.1" xmlns="http://www.w3.org/2000/svg" p-id="1535" xmlns:xlink="http://www.w3.org/1999/xlink" width="200" height="200"><path d="M320 128h384v64H320zM320 832h384v64H320zM128 320h64v384h-64zM832 320h64v384h-64zM448 448V320h128v128h128v128H576v128H448l-0.19-127.51L320 576V448zM256 192h64v64h-64v-64zM192 256h64v64h-64zM192 704h64v64h-64zM256 768h64v64h-64zM768 704h64v64h-64v-64zM704 768h64v64h-64zM704 192h64v64h-64zM768 256h64v64h-64z" fill="#2c2c2c" p-id="1536"></path></svg>