<?xml version="1.0" standalone="no"?><!DOCTYPE svg PUBLIC "-//W3C//DTD SVG 1.1//EN" "http://www.w3.org/Graphics/SVG/1.1/DTD/svg11.dtd"><svg t="1758624587330" class="icon" viewBox="0 0 1024 1024" version="1.1" xmlns="http://www.w3.org/2000/svg" p-id="3389" xmlns:xlink="http://www.w3.org/1999/xlink" width="200" height="200"><path d="M506.88 97.28c226.21696 0 409.6 183.38304 409.6 409.6s-183.38304 409.6-409.6 409.6-409.6-183.38304-409.6-409.6 183.38304-409.6 409.6-409.6z m8.192 311.296h-16.384c-40.71936 0-73.728 33.00864-73.728 73.728v262.144c0 40.71936 33.00864 73.728 73.728 73.728h16.384c40.71936 0 73.728-33.00864 73.728-73.728V482.304c0-40.71936-33.00864-73.728-73.728-73.728z m0-212.992h-16.384c-40.71936 0-73.728 33.00864-73.728 73.728v16.384c0 40.71936 33.00864 73.728 73.728 73.728h16.384c40.71936 0 73.728-33.00864 73.728-73.728v-16.384c0-40.71936-33.00864-73.728-73.728-73.728z" fill="#B5B9BF" p-id="3390"></path></svg>