<?xml version="1.0" standalone="no"?><!DOCTYPE svg PUBLIC "-//W3C//DTD SVG 1.1//EN" "http://www.w3.org/Graphics/SVG/1.1/DTD/svg11.dtd"><svg t="1761998808874" class="icon" viewBox="0 0 1024 1024" version="1.1" xmlns="http://www.w3.org/2000/svg" p-id="9372" xmlns:xlink="http://www.w3.org/1999/xlink" width="200" height="200"><path d="M128 798.72m76.8 0l614.4 0q76.8 0 76.8 76.8l0 0q0 76.8-76.8 76.8l-614.4 0q-76.8 0-76.8-76.8l0 0q0-76.8 76.8-76.8Z" fill="#B4FC75" p-id="9373"></path><path d="M766.19776 187.66336c19.9936 19.9936 19.9936 52.41344 0 72.40704l-134.30784 134.30272 219.904 219.90912c30.80704 30.80192 30.80704 80.7424 0 111.54944-30.80192 30.80192-80.7424 30.80192-111.54432 0l-219.904-219.904-127.92832 127.9232c-19.9936 19.99872-52.41344 19.99872-72.40704 0l-150.6816-150.6816c-19.99872-19.99872-19.99872-52.41856 0-72.41216l373.77536-373.78048c19.9936-19.9936 52.41344-19.9936 72.40704 0l150.68672 150.68672z" fill="#B4FC75" p-id="9374"></path></svg>