<?xml version="1.0" standalone="no"?><!DOCTYPE svg PUBLIC "-//W3C//DTD SVG 1.1//EN" "http://www.w3.org/Graphics/SVG/1.1/DTD/svg11.dtd"><svg t="1762154504017" class="icon" viewBox="0 0 1092 1024" version="1.1" xmlns="http://www.w3.org/2000/svg" p-id="4255" xmlns:xlink="http://www.w3.org/1999/xlink" width="213.28125" height="200"><path d="M843.639467 892.654933a38.229333 38.229333 0 0 0-38.229334-32.1536H284.808533a38.229333 38.229333 0 0 0-38.229333 32.085334l-12.288 77.755733a37.6832 37.6832 0 0 0 8.8064 30.583467 38.912 38.912 0 0 0 29.354667 13.312h545.314133a38.229333 38.229333 0 0 0 38.229333-43.963734l-12.356266-77.6192z m-558.830934-4.983466v19.0464-19.0464z m634.606934-779.6736h-48.810667l-269.243733 0.068266v-51.882666A55.227733 55.227733 0 0 0 573.44 7.645867a57.002667 57.002667 0 0 0-56.7296 0 55.227733 55.227733 0 0 0-27.921067 48.674133v51.882667h-317.44L15.428267 568.183467a37.751467 37.751467 0 0 0-14.336 39.389866l-0.2048 3.4816 17.8176 68.334934c4.096 17.066667 19.6608 29.218133 37.546666 29.149866h261.802667c17.885867 0.068267 33.450667-12.014933 37.546667-29.149866l17.6128-71.68a37.6832 37.6832 0 0 0-16.247467-40.7552L235.042133 189.986133H488.789333v578.696534H397.653333c-26.624 0-48.605867 13.038933-55.022933 33.860266l-10.6496 46.6944-0.477867 10.581334h427.2128V853.333333l-11.4688-52.155733c-6.075733-19.387733-27.989333-32.426667-54.613333-32.426667H601.2928V189.986133h257.8432L733.866667 567.842133a37.819733 37.819733 0 0 0-14.882134 39.7312l17.681067 71.8848c4.096 17.134933 19.6608 29.218133 37.546667 29.149867h261.802666c17.8176 0 33.450667-12.014933 37.546667-29.149867l17.6128-71.816533a37.751467 37.751467 0 0 0-16.247467-40.618667l-155.511466-459.025066zM318.122667 689.5616v-19.0464 19.0464z" fill="#2c2c2c" p-id="4256"></path></svg>