<?xml version="1.0" standalone="no"?><!DOCTYPE svg PUBLIC "-//W3C//DTD SVG 1.1//EN" "http://www.w3.org/Graphics/SVG/1.1/DTD/svg11.dtd"><svg t="1758978840620" class="icon" viewBox="0 0 1027 1024" version="1.1" xmlns="http://www.w3.org/2000/svg" p-id="4613" xmlns:xlink="http://www.w3.org/1999/xlink" width="200.5859375" height="200"><path d="M658.773333 727.04c23.893333 23.893333 54.613333 37.546667 88.746667 37.546667s64.853333-13.653333 88.746667-37.546667l150.186666-150.186667c27.306667-27.306667 40.96-61.44 40.96-92.16 0-30.72-13.653333-61.44-40.96-81.92-17.066667-17.066667-40.96-27.306667-64.853333-27.306666-27.306667 0-51.2 10.24-68.266667 23.893333l-194.56 194.56c-37.546667 37.546667-37.546667 95.573333 0 133.12zM604.16 576.853333c3.413333 3.413333 6.826667 3.413333 13.653333 3.413334 3.413333 0 10.24-3.413333 13.653334-6.826667l3.413333-3.413333 194.56-194.56 3.413333-3.413334c3.413333-3.413333 6.826667-6.826667 6.826667-13.653333 0-3.413333 0-10.24-3.413333-13.653333l-160.426667-160.426667c-6.826667-6.826667-17.066667-6.826667-23.893333 0l-204.8 204.8c-6.826667 6.826667-6.826667 17.066667 0 23.893333l6.826666 6.826667L40.96 788.48c-27.306667 20.48-40.96 51.2-40.96 85.333333s13.653333 68.266667 37.546667 92.16l17.066666 17.066667c27.306667 27.306667 61.44 40.96 95.573334 40.96 34.133333 0 64.853333-13.653333 85.333333-37.546667l361.813333-413.013333 6.826667 3.413333zM365.226667 392.533333c20.48 0 40.96-6.826667 58.026666-23.893333l204.8-204.8c17.066667-17.066667 27.306667-40.96 23.893334-64.853333-3.413333-23.893333-13.653333-44.373333-30.72-61.44-47.786667-47.786667-129.706667-47.786667-177.493334 0L293.546667 184.32c-47.786667 47.786667-47.786667 126.293333 0 177.493333 20.48 20.48 44.373333 30.72 71.68 30.72zM904.533333 887.466667h-238.933333c-58.026667 0-119.466667 61.44-119.466667 119.466666 0 10.24 6.826667 17.066667 17.066667 17.066667h443.733333c10.24 0 17.066667-6.826667 17.066667-17.066667 0-58.026667-61.44-119.466667-119.466667-119.466666z" fill="#2c2c2c" p-id="4614"></path></svg>