<?xml version="1.0" standalone="no"?><!DOCTYPE svg PUBLIC "-//W3C//DTD SVG 1.1//EN" "http://www.w3.org/Graphics/SVG/1.1/DTD/svg11.dtd"><svg t="1760612003886" class="icon" viewBox="0 0 1024 1024" version="1.1" xmlns="http://www.w3.org/2000/svg" p-id="5513" xmlns:xlink="http://www.w3.org/1999/xlink" width="200" height="200"><path d="M1008 489.6l-355.2-116.8-14.4-44.8 120-60.8-40 80 43.2 20.8 70.4-144c4.8-9.6 3.2-20.8-4.8-27.2-8-8-19.2-9.6-27.2-4.8l-179.2 89.6L534.4 16c-3.2-9.6-12.8-16-22.4-16s-19.2 6.4-22.4 16l-86.4 265.6L224 192c-9.6-4.8-20.8-3.2-27.2 4.8-8 8-9.6 19.2-4.8 27.2l72 145.6 43.2-20.8-40-80 120 60.8-14.4 44.8L16 489.6c-9.6 3.2-16 12.8-16 22.4s6.4 19.2 16 22.4l355.2 116.8 14.4 44.8-120 60.8 40-78.4-43.2-22.4-70.4 144c-4.8 9.6-3.2 20.8 4.8 27.2 4.8 4.8 11.2 6.4 17.6 6.4 3.2 0 8-1.6 11.2-3.2l179.2-89.6L489.6 1008c3.2 9.6 12.8 16 22.4 16s19.2-6.4 22.4-16l86.4-265.6L800 832c3.2 1.6 6.4 3.2 11.2 3.2 6.4 0 12.8-3.2 17.6-6.4 8-8 9.6-19.2 4.8-27.2l-72-144-43.2 20.8 40 80-120-60.8 14.4-44.8L1008 534.4c9.6-3.2 16-12.8 16-22.4s-6.4-19.2-16-22.4z m-382.4 120c-8 1.6-12.8 8-16 16L512 923.2l-97.6-297.6c-1.6-8-8-12.8-16-16L100.8 512l297.6-97.6c8-1.6 12.8-8 16-16L512 100.8l97.6 297.6c1.6 8 8 12.8 16 16L923.2 512l-297.6 97.6z" p-id="5514" fill="#3B82F6"></path><path d="M512 424c-48 0-88 40-88 88s40 88 88 88 88-40 88-88-40-88-88-88z m0 128c-22.4 0-40-17.6-40-40s17.6-40 40-40 40 17.6 40 40-17.6 40-40 40z" p-id="5515" fill="#3B82F6"></path></svg>