<?xml version="1.0" standalone="no"?><!DOCTYPE svg PUBLIC "-//W3C//DTD SVG 1.1//EN" "http://www.w3.org/Graphics/SVG/1.1/DTD/svg11.dtd"><svg t="1751955474829" class="icon" viewBox="0 0 1024 1024" version="1.1" xmlns="http://www.w3.org/2000/svg" p-id="2485" xmlns:xlink="http://www.w3.org/1999/xlink" width="200" height="200"><path d="M844.802135 180.053333a29.653333 29.653333 0 0 0-1.92-7.466666l-23.466667-50.346667A213.333333 213.333333 0 0 0 538.028801 19.84l-283.306666 132.266667a41.173333 41.173333 0 0 0-21.333334 24.106666h-18.133333A213.333333 213.333333 0 0 0 3.415468 388.053333V810.666667a213.333333 213.333333 0 0 0 211.84 213.333333h592.853333a213.333333 213.333333 0 0 0 211.84-213.333333V388.053333a212.053333 212.053333 0 0 0-175.146666-208z m-270.933334-83.413333a128 128 0 0 1 168.96 61.44l8.32 18.133333H403.202135l170.666666-79.573333z m361.173334 630.186667h-182.613334a128 128 0 1 1 0-254.08h182.613334v254.08z m-182.613334-338.773334a211.84 211.84 0 0 0 0 423.68h182.613334a128 128 0 0 1-128 128H215.255468a128 128 0 0 1-128-128V388.053333a128 128 0 0 1 128-128h592.853333a128 128 0 0 1 128 128z" fill="#e6e6e6" p-id="2486"></path><path d="M677.548801 599.893333a85.333333 85.333333 0 1 0 85.333334-85.333333 85.333333 85.333333 0 0 0-85.333334 85.333333zM198.615468 584.746667h235.946667a12.373333 12.373333 0 0 0 11.52-7.68 12.586667 12.586667 0 0 0-2.56-13.44l-74.453334-74.453334a12.373333 12.373333 0 0 0-8.746666-3.626666 12.373333 12.373333 0 0 0-12.373334 12.373333 12.373333 12.373333 0 0 0 3.626667 8.746667l53.333333 53.333333H198.615468a12.373333 12.373333 0 0 0-12.373333 12.373333 12.16 12.16 0 0 0 3.626666 8.746667 11.733333 11.733333 0 0 0 8.746667 3.626667zM434.562135 661.333333H198.615468a12.586667 12.586667 0 0 0-11.733333 7.68 16.64 16.64 0 0 0 0 4.693334 11.733333 11.733333 0 0 0 3.84 8.746666l62.08 62.293334a11.733333 11.733333 0 0 0 8.746666 3.626666 12.373333 12.373333 0 0 0 12.373334-12.373333 12.16 12.16 0 0 0-3.626667-8.746667l-41.813333-40.32h206.08a12.373333 12.373333 0 0 0 12.373333-12.373333 12.586667 12.586667 0 0 0-12.373333-13.226667z" fill="#e6e6e6" p-id="2487"></path><path d="M260.695468 757.12a20.053333 20.053333 0 0 1-14.506667-6.186667l-62.08-62.293333a19.2 19.2 0 0 1-5.973333-14.293333 17.28 17.28 0 0 1 1.493333-7.893334 21.333333 21.333333 0 0 1 18.986667-12.586666h235.946667a21.333333 21.333333 0 0 1 0 41.173333h-186.88l27.306666 27.093333a21.333333 21.333333 0 0 1 5.973334 14.506667 21.333333 21.333333 0 0 1-5.973334 14.506667 21.333333 21.333333 0 0 1-14.293333 5.973333zM198.615468 669.866667a4.48 4.48 0 0 0-4.266667 2.773333v4.693333l62.293334 62.293334a4.693333 4.693333 0 0 0 6.186666 0 5.12 5.12 0 0 0 1.28-3.2 3.626667 3.626667 0 0 0-1.28-2.986667l-53.76-54.4h225.493334a4.693333 4.693333 0 0 0 0-9.173333z m0-77.013334a21.333333 21.333333 0 0 1-14.293333-5.973333 19.626667 19.626667 0 0 1-5.76-14.506667 21.333333 21.333333 0 0 1 21.333333-21.333333h186.88L345.815468 512a20.053333 20.053333 0 0 1 0-28.8 21.333333 21.333333 0 0 1 28.586667 0l74.453333 74.453333a20.053333 20.053333 0 0 1 4.48 21.333334 21.333333 21.333333 0 0 1-18.986667 12.586666H198.402135z m0-24.96a4.48 4.48 0 0 0-4.266667 4.48 4.053333 4.053333 0 0 0 4.053334 4.48h236.16a4.48 4.48 0 0 0 3.2-7.68l-74.453334-74.453333a4.266667 4.266667 0 0 0-5.973333 0 4.053333 4.053333 0 0 0-1.493333 3.2 4.266667 4.266667 0 0 0 1.28 2.986667l66.986666 66.986666z" fill="#e6e6e6" p-id="2488"></path></svg>