<?xml version="1.0" standalone="no"?><!DOCTYPE svg PUBLIC "-//W3C//DTD SVG 1.1//EN" "http://www.w3.org/Graphics/SVG/1.1/DTD/svg11.dtd"><svg t="1753864334498" class="icon" viewBox="0 0 1024 1024" version="1.1" xmlns="http://www.w3.org/2000/svg" p-id="8323" xmlns:xlink="http://www.w3.org/1999/xlink" width="200" height="200"><path d="M945.230769 393.846154h78.769231v78.769231h-78.769231zM945.230769 315.076923h78.769231v78.769231h-78.769231zM866.461538 472.615385h78.769231v78.76923h-78.769231z" fill="#1E2028" p-id="8324"></path><path d="M866.461538 393.846154h78.769231v78.769231h-78.769231zM866.461538 315.076923h78.769231v78.769231h-78.769231z" fill="#38B269" p-id="8325"></path><path d="M866.461538 236.307692h78.769231v78.769231h-78.769231zM787.692308 551.384615h78.76923v78.769231h-78.76923z" fill="#1E2028" p-id="8326"></path><path d="M787.692308 472.615385h78.76923v78.76923h-78.76923z" fill="#38B269" p-id="8327"></path><path d="M787.692308 393.846154h78.76923v78.769231h-78.76923z" fill="#1E2028" p-id="8328"></path><path d="M787.692308 315.076923h78.76923v78.769231h-78.76923z" fill="#60EF9A" p-id="8329"></path><path d="M787.692308 236.307692h78.76923v78.769231h-78.76923z" fill="#38B269" p-id="8330"></path><path d="M787.692308 157.538462h78.76923v78.76923h-78.76923zM708.923077 630.153846h78.769231v78.769231h-78.769231z" fill="#1E2028" p-id="8331"></path><path d="M708.923077 551.384615h78.769231v78.769231h-78.769231z" fill="#38B269" p-id="8332"></path><path d="M708.923077 472.615385h78.769231v78.76923h-78.769231z" fill="#60EF9A" p-id="8333"></path><path d="M708.923077 393.846154h78.769231v78.769231h-78.769231z" fill="#1E2028" p-id="8334"></path><path d="M708.923077 315.076923h78.769231v78.769231h-78.769231zM708.923077 236.307692h78.769231v78.769231h-78.769231z" fill="#60EF9A" p-id="8335"></path><path d="M708.923077 157.538462h78.769231v78.76923h-78.769231z" fill="#38B269" p-id="8336"></path><path d="M708.923077 78.769231h78.769231v78.769231h-78.769231zM630.153846 708.923077h78.769231v78.769231h-78.769231z" fill="#1E2028" p-id="8337"></path><path d="M630.153846 630.153846h78.769231v78.769231h-78.769231z" fill="#38B269" p-id="8338"></path><path d="M630.153846 551.384615h78.769231v78.769231h-78.769231zM630.153846 472.615385h78.769231v78.76923h-78.769231z" fill="#60EF9A" p-id="8339"></path><path d="M630.153846 393.846154h78.769231v78.769231h-78.769231z" fill="#1E2028" p-id="8340"></path><path d="M630.153846 315.076923h78.769231v78.769231h-78.769231z" fill="#60EF9A" p-id="8341"></path><path d="M630.153846 236.307692h78.769231v78.769231h-78.769231z" fill="#1E2028" p-id="8342"></path><path d="M630.153846 157.538462h78.769231v78.76923h-78.769231z" fill="#60EF9A" p-id="8343"></path><path d="M630.153846 78.769231h78.769231v78.769231h-78.769231zM551.384615 787.692308h78.769231v78.76923h-78.769231z" fill="#1E2028" p-id="8344"></path><path d="M551.384615 708.923077h78.769231v78.769231h-78.769231z" fill="#38B269" p-id="8345"></path><path d="M551.384615 630.153846h78.769231v78.769231h-78.769231zM551.384615 551.384615h78.769231v78.769231h-78.769231zM551.384615 472.615385h78.769231v78.76923h-78.769231z" fill="#60EF9A" p-id="8346"></path><path d="M551.384615 393.846154h78.769231v78.769231h-78.769231zM551.384615 315.076923h78.769231v78.769231h-78.769231z" fill="#1E2028" p-id="8347"></path><path d="M551.384615 236.307692h78.769231v78.769231h-78.769231zM551.384615 157.538462h78.769231v78.76923h-78.769231z" fill="#60EF9A" p-id="8348"></path><path d="M551.384615 78.769231h78.769231v78.769231h-78.769231zM472.615385 866.461538h78.76923v78.769231h-78.76923z" fill="#1E2028" p-id="8349"></path><path d="M472.615385 787.692308h78.76923v78.76923h-78.76923z" fill="#38B269" p-id="8350"></path><path d="M472.615385 708.923077h78.76923v78.769231h-78.76923zM472.615385 630.153846h78.76923v78.769231h-78.76923zM472.615385 551.384615h78.76923v78.769231h-78.76923zM472.615385 472.615385h78.76923v78.76923h-78.76923zM472.615385 393.846154h78.76923v78.769231h-78.76923z" fill="#1E2028" p-id="8351"></path><path d="M472.615385 315.076923h78.76923v78.769231h-78.76923zM472.615385 236.307692h78.76923v78.769231h-78.76923zM472.615385 157.538462h78.76923v78.76923h-78.76923z" fill="#60EF9A" p-id="8352"></path><path d="M472.615385 78.769231h78.76923v78.769231h-78.76923zM393.846154 787.692308h78.769231v78.76923h-78.769231z" fill="#1E2028" p-id="8353"></path><path d="M393.846154 708.923077h78.769231v78.769231h-78.769231z" fill="#AAF2C7" p-id="8354"></path><path d="M393.846154 630.153846h78.769231v78.769231h-78.769231zM393.846154 551.384615h78.769231v78.769231h-78.769231zM393.846154 472.615385h78.769231v78.76923h-78.769231z" fill="#60EF9A" p-id="8355"></path><path d="M393.846154 393.846154h78.769231v78.769231h-78.769231zM393.846154 315.076923h78.769231v78.769231h-78.769231z" fill="#1E2028" p-id="8356"></path><path d="M393.846154 236.307692h78.769231v78.769231h-78.769231zM393.846154 157.538462h78.769231v78.76923h-78.769231z" fill="#60EF9A" p-id="8357"></path><path d="M393.846154 78.769231h78.769231v78.769231h-78.769231zM315.076923 708.923077h78.769231v78.769231h-78.769231z" fill="#1E2028" p-id="8358"></path><path d="M315.076923 630.153846h78.769231v78.769231h-78.769231z" fill="#AAF2C7" p-id="8359"></path><path d="M315.076923 551.384615h78.769231v78.769231h-78.769231zM315.076923 472.615385h78.769231v78.76923h-78.769231z" fill="#60EF9A" p-id="8360"></path><path d="M315.076923 393.846154h78.769231v78.769231h-78.769231z" fill="#1E2028" p-id="8361"></path><path d="M315.076923 315.076923h78.769231v78.769231h-78.769231z" fill="#60EF9A" p-id="8362"></path><path d="M315.076923 236.307692h78.769231v78.769231h-78.769231z" fill="#1E2028" p-id="8363"></path><path d="M315.076923 157.538462h78.769231v78.76923h-78.769231z" fill="#60EF9A" p-id="8364"></path><path d="M315.076923 78.769231h78.769231v78.769231h-78.769231zM236.307692 630.153846h78.769231v78.769231h-78.769231z" fill="#1E2028" p-id="8365"></path><path d="M236.307692 551.384615h78.769231v78.769231h-78.769231z" fill="#AAF2C7" p-id="8366"></path><path d="M236.307692 472.615385h78.769231v78.76923h-78.769231z" fill="#60EF9A" p-id="8367"></path><path d="M236.307692 393.846154h78.769231v78.769231h-78.769231z" fill="#1E2028" p-id="8368"></path><path d="M236.307692 315.076923h78.769231v78.769231h-78.769231z" fill="#60EF9A" p-id="8369"></path><path d="M236.307692 236.307692h78.769231v78.769231h-78.769231z" fill="#FFFFFF" p-id="8370"></path><path d="M236.307692 157.538462h78.769231v78.76923h-78.769231z" fill="#AAF2C7" p-id="8371"></path><path d="M236.307692 78.769231h78.769231v78.769231h-78.769231zM157.538462 551.384615h78.76923v78.769231H157.538462z" fill="#1E2028" p-id="8372"></path><path d="M157.538462 472.615385h78.76923v78.76923H157.538462z" fill="#AAF2C7" p-id="8373"></path><path d="M157.538462 393.846154h78.76923v78.769231H157.538462z" fill="#1E2028" p-id="8374"></path><path d="M157.538462 315.076923h78.76923v78.769231H157.538462z" fill="#FFFFFF" p-id="8375"></path><path d="M157.538462 236.307692h78.76923v78.769231H157.538462z" fill="#AAF2C7" p-id="8376"></path><path d="M157.538462 157.538462h78.76923v78.76923H157.538462zM78.769231 472.615385h78.769231v78.76923H78.769231z" fill="#1E2028" p-id="8377"></path><path d="M78.769231 393.846154h78.769231v78.769231H78.769231zM78.769231 315.076923h78.769231v78.769231H78.769231z" fill="#AAF2C7" p-id="8378"></path><path d="M78.769231 236.307692h78.769231v78.769231H78.769231zM0 393.846154h78.769231v78.769231H0zM0 315.076923h78.769231v78.769231H0z" fill="#1E2028" p-id="8379"></path></svg>