<?xml version="1.0" standalone="no"?><!DOCTYPE svg PUBLIC "-//W3C//DTD SVG 1.1//EN" "http://www.w3.org/Graphics/SVG/1.1/DTD/svg11.dtd"><svg t="1762076405474" class="icon" viewBox="0 0 1024 1024" version="1.1" xmlns="http://www.w3.org/2000/svg" p-id="2474" xmlns:xlink="http://www.w3.org/1999/xlink" width="200" height="200"><path d="M316.8 316.8C351.9 167.1 426.1 63.9 512 63.9 264.5 63.9 63.9 264.5 63.9 512c0-85.9 103.2-160.1 252.9-195.2z m0 390.4C167.1 672.1 63.9 597.9 63.9 512c0 247.5 200.6 448.1 448.1 448.1-85.9 0-160.1-103.2-195.2-252.9zM916.7 512c0-63.8-80.5-119.6-200.4-149.7 8.1 46.8 12.4 97.2 12.4 149.7 0 52.5-4.4 102.9-12.4 149.7 119.9-30.1 200.4-85.9 200.4-149.7zM707.2 316.8C856.9 351.9 960.1 426.1 960.1 512c0-247.5-200.6-448.1-448.1-448.1 85.9 0 160.1 103.2 195.2 252.9zM512 728.8c-52.5 0-102.9-4.4-149.7-12.4 30.1 119.8 85.9 200.3 149.7 200.3s119.6-80.5 149.7-200.3c-46.8 8-97.2 12.4-149.7 12.4z m195.2-21.6C672.1 856.9 597.9 960.1 512 960.1c247.5 0 448.1-200.6 448.1-448.1 0 85.9-103.2 160.1-252.9 195.2zM107.3 512c0 63.8 80.5 119.6 200.4 149.7-8-46.8-12.4-97.2-12.4-149.7 0-52.5 4.4-102.9 12.4-149.7-119.9 30.1-200.4 85.9-200.4 149.7z m554.4-204.4C631.6 187.8 575.8 107.3 512 107.3s-119.6 80.5-149.7 200.4c46.8-8 97.2-12.4 149.7-12.4s102.9 4.3 149.7 12.3z m9.8 363.9c9-48.9 14-102.8 14-159.4s-5-110.5-14-159.4c-49-9-102.8-14-159.4-14s-110.5 5-159.4 14c-9 48.9-14 102.8-14 159.4s5 110.5 14 159.4c48.9 9 102.8 14 159.4 14s110.4-5.1 159.4-14z" p-id="2475" fill="#B4FC75"></path></svg>