<?xml version="1.0" standalone="no"?><!DOCTYPE svg PUBLIC "-//W3C//DTD SVG 1.1//EN" "http://www.w3.org/Graphics/SVG/1.1/DTD/svg11.dtd"><svg t="1751897466799" class="icon" viewBox="0 0 1024 1024" version="1.1" xmlns="http://www.w3.org/2000/svg" p-id="6304" xmlns:xlink="http://www.w3.org/1999/xlink" width="200" height="200"><path d="M571.558972 487.027956l385.493596-385.1523c23.321879-23.321879 23.321879-60.978181 0-84.186295a59.328585 59.328585 0 0 0-84.129412 0L487.315795 402.841661 101.651551 17.518713a59.328585 59.328585 0 0 0-84.07253 0c-23.321879 23.321879-23.321879 60.978181 0 84.129412l385.493596 385.1523-385.493596 385.322948a59.328585 59.328585 0 0 0 42.093148 101.478615c15.244545 0 30.375325-5.688263 42.036265-17.349202l385.607361-385.209183 385.664243 385.322948c11.604057 11.66094 26.734837 17.406085 41.979383 17.406085a59.328585 59.328585 0 0 0 42.093147-101.535498L571.558972 487.027956z" fill="#8a8a8a" p-id="6305"></path></svg>