<?xml version="1.0" standalone="no"?><!DOCTYPE svg PUBLIC "-//W3C//DTD SVG 1.1//EN" "http://www.w3.org/Graphics/SVG/1.1/DTD/svg11.dtd"><svg t="1754022864605" class="icon" viewBox="0 0 1024 1024" version="1.1" xmlns="http://www.w3.org/2000/svg" p-id="2628" xmlns:xlink="http://www.w3.org/1999/xlink" width="200" height="200"><path d="M976.384 157.184c-5.12 4.096-6.144 7.68-5.632 13.824 1.024 14.848-2.56 28.672-15.872 37.376-6.656 4.608-13.824 6.656-22.016 7.68-11.776 1.536-23.552 1.024-35.328-2.048-19.456-5.12-36.864-20.48-34.816-47.104h-1.024c-6.144 15.36-20.48 23.04-38.912 20.48-8.704-1.024-17.408-3.072-25.088-6.144-3.584-1.536-6.144-1.024-8.704 1.536-12.288 9.728-25.088 16.384-40.96 18.944-7.68 1.024-15.36 0-23.04-3.072-1.536-0.512-3.072-1.536-4.096 1.024-5.12 14.336-15.872 23.04-28.672 29.184-4.608 2.048-6.144 4.608-5.632 9.728 0.512 7.168 0 14.336-4.096 20.992-1.536 2.048-3.072 4.096-5.12 5.12-6.144 3.584-8.192 2.56-9.216-4.608-3.072-23.04-4.096-46.08 1.536-69.12 2.56-10.24 6.656-19.456 14.848-26.624 2.048-1.536 2.56-3.584 3.072-6.144 2.56-15.872 7.68-30.208 18.432-42.496 15.872-18.432 36.864-24.576 59.904-23.552 6.656 0.512 10.24-1.024 13.824-6.656 17.408-26.624 46.592-37.376 77.312-29.696 4.096 1.536 8.704 1.024 12.8-1.024 14.336-7.168 29.696-11.776 45.568-12.8 31.232-1.536 52.224 11.776 64.512 40.96 5.12 11.776 7.68 24.576 11.264 36.864 4.096 15.36-3.072 27.648-14.848 37.376z m-253.952 133.632c0 88.576 0 177.152-0.512 265.728 0 4.608 1.024 7.168 5.632 9.216 31.744 15.36 64 31.232 95.744 47.104 4.096 2.048 5.12 4.096 5.12 8.192v354.304c0 4.608-1.024 6.144-6.144 6.144H37.376c-5.12 0-6.144-1.024-6.144-6.144V290.304c0-5.12 1.536-6.656 6.144-6.656h112.64c3.584 0 7.168 1.024 10.24 2.56 138.24 68.096 275.968 136.192 414.208 203.776 1.536 1.024 3.584 1.536 6.144 2.56v-7.168-264.704c0-6.144 1.536-7.168 7.168-7.168 13.824 0.512 27.136 0.512 40.96 0 4.096 0 5.12 1.024 5.12 5.12v58.368c0 5.12 1.024 6.656 6.144 6.656 25.088-0.512 50.688 0 75.776-0.512 5.12 1.024 6.656 2.048 6.656 7.68z m-530.944 348.16c0-5.12-1.536-6.144-6.144-6.144-19.456 0.512-39.424 0.512-58.88 0-4.608 0-6.144 1.024-6.144 6.144V906.24c0 4.608 1.536 5.632 5.632 5.632 19.968-0.512 39.424-0.512 59.392 0 4.608 0 6.144-1.024 6.144-5.632v-267.264z m100.352-6.144c-19.968 0-39.424 0.512-59.392 0-4.608 0-6.144 1.024-6.144 6.144V906.24c0 4.096 0.512 5.632 5.12 5.632 19.968-0.512 40.448 0 60.416 0 4.096 0 5.12-1.024 5.12-5.12v-268.8c0.512-4.096-1.024-5.12-5.12-5.12z m112.128 5.12c0-4.096-1.024-4.608-5.12-4.608-19.968 0-39.936 0.512-59.904 0-5.632 0-6.144 1.536-6.144 6.656v266.24c0 5.632 1.536 6.656 6.656 6.144 19.968-0.512 39.936 0 59.392 0 4.096 0 5.12-1.024 5.12-5.12v-269.312z" p-id="2629" fill="#ffffff"></path></svg>