<?xml version="1.0" standalone="no"?><!DOCTYPE svg PUBLIC "-//W3C//DTD SVG 1.1//EN" "http://www.w3.org/Graphics/SVG/1.1/DTD/svg11.dtd"><svg t="1759633238396" class="icon" viewBox="0 0 1024 1024" version="1.1" xmlns="http://www.w3.org/2000/svg" p-id="18181" xmlns:xlink="http://www.w3.org/1999/xlink" width="200" height="200"><path d="M512 153.6l202.9568 117.1968-1.1264 0.6656a102.4 102.4 0 0 1 107.6224 174.2848l0.9728-0.5632V691.2l-208.3328 120.32A102.4 102.4 0 1 1 409.6 819.2l0.256-7.68-208.2304-120.32-0.0512-246.0672 1.792 1.1264A102.3488 102.3488 0 0 1 256 256c20.0704 0 38.7584 5.7856 54.5792 15.7184l-1.536-0.9216L512 153.6z m0 614.4a51.2 51.2 0 1 0 0 102.4 51.2 51.2 0 0 0 0-102.4zM256 460.8l-5.376-0.1536 2.1504 0.1024v200.8576l174.1312 100.5568-0.3072 0.512a102.5536 102.5536 0 0 1 60.9792-42.9568l-1.1776 0.3072v-193.28L325.3248 433.7664l0.8704-0.8192C307.8656 450.2016 283.1872 460.8 256 460.8z m441.1904-28.416l1.024 1.024-160.6144 92.672 0.0512 193.9456-1.536-0.3584c25.4976 6.144 47.2064 21.8112 61.2864 43.008l-0.3072-0.512 174.08-100.5568V460.6976l4.4544-0.1536L768 460.8a102.0416 102.0416 0 0 1-70.8096-28.416zM512 212.736L345.6 308.7872a101.9392 101.9392 0 0 1 7.0144 83.6608l0.5632-1.7408 158.208 91.392 159.232-91.904a101.9392 101.9392 0 0 1 7.7824-81.408L512 212.736zM256 307.2a51.2 51.2 0 1 0 0 102.4 51.2 51.2 0 0 0 0-102.4z m512 0a51.2 51.2 0 1 0 0 102.4 51.2 51.2 0 0 0 0-102.4z" p-id="18182" fill="#3B82F6"></path></svg>