<?xml version="1.0" standalone="no"?><!DOCTYPE svg PUBLIC "-//W3C//DTD SVG 1.1//EN" "http://www.w3.org/Graphics/SVG/1.1/DTD/svg11.dtd"><svg t="1755142959867" class="icon" viewBox="0 0 1024 1024" version="1.1" xmlns="http://www.w3.org/2000/svg" p-id="2619" xmlns:xlink="http://www.w3.org/1999/xlink" width="200" height="200"><path d="M800.507 807.044v58.49c0 3.719-3.043 6.762-6.762 6.762h-130.73c-3.719 0-6.761-3.043-6.761-6.762v-58.49c0-3.72 3.042-6.762 6.761-6.762h58.49c3.72 0 6.763-3.043 6.763-6.762V590.889c0-3.72-3.043-6.762-6.762-6.762H518.987c-3.719 0-6.762 3.043-6.762 6.762v202.63c0 3.72 3.043 6.763 6.762 6.763h58.378c3.719 0 6.762 3.042 6.762 6.762v58.49c0 3.719-3.043 6.762-6.762 6.762h-130.73c-3.719 0-6.762-3.043-6.762-6.762V806.93c0-3.72-3.043-6.762-6.762-6.762H230.368c-3.72 0-6.762 3.043-6.762 6.762v202.744c0 3.719 3.043 6.762 6.762 6.762H433.11c3.72 0 6.762-3.043 6.762-6.762v-58.49c0-3.72 3.043-6.763 6.762-6.763h347.223c3.719 0 6.762 3.043 6.762 6.762v58.49c0 3.72 3.043 6.763 6.762 6.763h202.856c3.72 0 6.762-3.043 6.762-6.762V807.044c0-3.72-3.043-6.762-6.762-6.762H807.382c-3.832 0-6.875 3.042-6.875 6.762zM360.985 944.31h-58.49c-3.72 0-6.763-3.043-6.763-6.762v-58.49c0-3.72 3.043-6.762 6.762-6.762h58.49c3.72 0 6.762 3.043 6.762 6.762v58.49c0 3.719-3.042 6.762-6.761 6.762z m288.394-216.155H591c-3.719 0-6.762-3.043-6.762-6.762v-58.378c0-3.719 3.043-6.761 6.762-6.761h58.378c3.719 0 6.762 3.042 6.762 6.761v58.378c0 3.719-2.93 6.762-6.762 6.762zM938.11 944.31h-58.603c-3.719 0-6.762-3.043-6.762-6.762V879.17c0-3.719 3.043-6.762 6.762-6.762h58.603c3.72 0 6.762 3.043 6.762 6.762v58.378c0 3.719-3.043 6.762-6.762 6.762z" fill="#000000" p-id="2620"></path><path d="M85.889 79.127h491.476c3.719 0 6.762 3.043 6.762 6.762v202.856c0 3.72 3.043 6.762 6.762 6.762H793.97c3.719 0 6.761 3.043 6.761 6.762l-0.112 202.97c0 3.718 3.043 6.761 6.762 6.761h58.603c3.719 0 6.761-3.043 6.761-6.762l-1.014-275.885c0-3.719-3.043-6.762-6.762-6.762h-64.125v0.677h-0.225v-65.365c0-3.72-3.043-6.762-6.762-6.762h-58.603c-3.72 0-6.762-3.043-6.762-6.762V85.776c0-3.72-3.043-6.762-6.762-6.762h-65.365V13.762c0-3.72-3.043-6.762-6.762-6.762H20.524C13.086 7 7 13.086 7 20.524V1002.8c0 7.438 6.086 13.524 13.524 13.524h123.855c3.719 0 6.762-3.043 6.762-6.762v-58.603c0-3.72-3.043-6.762-6.762-6.762h-58.49c-3.72 0-6.762-3.043-6.762-6.762V85.89c0-3.72 3.043-6.762 6.762-6.762z" fill="#000000" p-id="2621"></path><path d="M505.125 151.14h-347.11c-3.719 0-6.761 3.044-6.761 6.763v58.603c0 3.719 3.042 6.762 6.761 6.762h347.11c3.72 0 6.762-3.043 6.762-6.762v-58.603c0-3.72-2.93-6.762-6.762-6.762z m-347.11 216.606h347.11c3.72 0 6.762-3.042 6.762-6.761v-58.603c0-3.72-3.043-6.762-6.762-6.762h-347.11c-3.719 0-6.761 3.043-6.761 6.762v58.603c0 3.719 3.042 6.761 6.761 6.761z m0 144.48h563.603c3.72 0 6.762-3.043 6.762-6.762V446.86c0-3.72-3.043-6.762-6.762-6.762H158.015c-3.719 0-6.761 3.042-6.761 6.762v58.603c0 3.719 3.042 6.761 6.761 6.761z m275.096 71.9H158.015c-3.719 0-6.761 3.044-6.761 6.763v58.603c0 3.719 3.042 6.762 6.761 6.762H433c3.719 0 6.762-3.043 6.762-6.762v-58.603c0.112-3.72-2.93-6.762-6.65-6.762z" fill="#000000" p-id="2622"></path></svg>