<?xml version="1.0" standalone="no"?><!DOCTYPE svg PUBLIC "-//W3C//DTD SVG 1.1//EN" "http://www.w3.org/Graphics/SVG/1.1/DTD/svg11.dtd"><svg t="1752822548606" class="icon" viewBox="0 0 1091 1024" version="1.1" xmlns="http://www.w3.org/2000/svg" p-id="46940" xmlns:xlink="http://www.w3.org/1999/xlink" width="213.0859375" height="200"><path d="M409.538349 0.727777h68.165921v68.165921h-68.165921zM273.19899 68.892194h68.16592v68.165921h-68.16592zM136.880681 205.227043h68.165921v68.16592H136.880681z" fill="#231815" p-id="46941"></path><path d="M205.039084 205.227043h68.16592v68.16592h-68.16592z" fill="#E83A3A" p-id="46942"></path><path d="M0.539818 409.726308h68.165921v68.165921H0.539818z" fill="#231815" p-id="46943"></path><path d="M68.71025 409.726308h68.16592v68.165921H68.71025zM136.880681 409.726308h68.165921v68.165921H136.880681z" fill="#FFFFFF" p-id="46944"></path><path d="M205.039084 409.726308h68.16592v68.165921h-68.16592z" fill="#FFFFFF" p-id="46945"></path><path d="M0.539818 546.05815h68.165921v68.16592H0.539818z" fill="#231815" p-id="46946"></path><path d="M68.71025 546.05815h68.16592v68.16592H68.71025z" fill="#FFFFFF" p-id="46947"></path><path d="M136.880681 546.05815h68.165921v68.16592H136.880681z" fill="#E83A3A" p-id="46948"></path><path d="M205.039084 546.05815h68.16592v68.16592h-68.16592z" fill="#E83A3A" p-id="46949"></path><path d="M1023.036147 546.05815h68.165921v68.16592h-68.165921z" fill="#231815" p-id="46950"></path><path d="M954.865715 546.05815h68.165921v68.16592h-68.165921z" fill="#E83A3A" p-id="46951"></path><path d="M886.696787 546.05815h68.165921v68.16592h-68.165921z" fill="#FFFFFF" p-id="46952"></path><path d="M818.536881 546.05815h68.165921v68.16592h-68.165921z" fill="#FFFFFF" p-id="46953"></path><path d="M954.865715 409.726308h68.165921v68.165921h-68.165921z" fill="#231815" p-id="46954"></path><path d="M886.696787 409.726308h68.165921v68.165921h-68.165921z" fill="#FFFFFF" p-id="46955"></path><path d="M818.536881 409.726308h68.165921v68.165921h-68.165921z" fill="#FFFFFF" p-id="46956"></path><path d="M886.696787 273.394467h68.165921v68.165921h-68.165921z" fill="#231815" p-id="46957"></path><path d="M818.536881 273.394467h68.165921v68.165921h-68.165921zM273.19899 137.059618h68.16592v68.165921h-68.16592zM273.19899 205.227043h68.16592v68.16592h-68.16592zM273.19899 273.394467h68.16592v68.165921h-68.16592z" fill="#E83A3A" p-id="46958"></path><path d="M273.19899 341.558884h68.16592v68.165921h-68.16592zM273.19899 409.726308h68.16592v68.165921h-68.16592z" fill="#E83A3A" p-id="46959"></path><path d="M273.19899 477.890725h68.16592v68.165921h-68.16592zM273.19899 546.05815h68.16592v68.16592h-68.16592z" fill="#E83A3A" p-id="46960"></path><path d="M273.19899 614.225574h68.16592v68.165921h-68.16592zM273.19899 682.392999h68.16592v68.16592h-68.16592z" fill="#231815" p-id="46961"></path><path d="M273.19899 750.557416h68.16592v68.16592h-68.16592z" fill="#FFFFFF" p-id="46962"></path><path d="M273.19899 818.72484h68.16592v68.165921h-68.16592z" fill="#FFDFD2" p-id="46963"></path><path d="M273.19899 886.889257h68.16592v68.165921h-68.16592zM136.880681 273.394467h68.165921v68.165921H136.880681z" fill="#231815" p-id="46964"></path><path d="M205.039084 273.394467h68.16592v68.165921h-68.16592z" fill="#E83A3A" p-id="46965"></path><path d="M0.539818 477.890725h68.165921v68.165921H0.539818z" fill="#231815" p-id="46966"></path><path d="M68.71025 477.890725h68.16592v68.165921H68.71025zM136.880681 477.890725h68.165921v68.165921H136.880681z" fill="#FFFFFF" p-id="46967"></path><path d="M205.039084 477.890725h68.16592v68.165921h-68.16592z" fill="#E83A3A" p-id="46968"></path><path d="M1023.036147 477.890725h68.165921v68.165921h-68.165921z" fill="#231815" p-id="46969"></path><path d="M954.865715 477.890725h68.165921v68.165921h-68.165921z" fill="#E83A3A" p-id="46970"></path><path d="M886.696787 477.890725h68.165921v68.165921h-68.165921z" fill="#FFFFFF" p-id="46971"></path><path d="M818.536881 477.890725h68.165921v68.165921h-68.165921z" fill="#FFFFFF" p-id="46972"></path><path d="M954.865715 341.558884h68.165921v68.165921h-68.165921z" fill="#231815" p-id="46973"></path><path d="M886.696787 341.558884h68.165921v68.165921h-68.165921z" fill="#E83A3A" p-id="46974"></path><path d="M818.536881 341.558884h68.165921v68.165921h-68.165921z" fill="#FFFFFF" p-id="46975"></path><path d="M886.696787 205.227043h68.165921v68.16592h-68.165921z" fill="#231815" p-id="46976"></path><path d="M818.536881 205.227043h68.165921v68.16592h-68.165921z" fill="#E83A3A" p-id="46977"></path><path d="M0.539818 614.225574h68.165921v68.165921H0.539818z" fill="#231815" p-id="46978"></path><path d="M68.71025 614.225574h68.16592v68.165921H68.71025zM136.880681 614.225574h68.165921v68.165921H136.880681z" fill="#E83A3A" p-id="46979"></path><path d="M205.039084 614.225574h68.16592v68.165921h-68.16592z" fill="#E83A3A" p-id="46980"></path><path d="M1023.036147 614.225574h68.165921v68.165921h-68.165921z" fill="#231815" p-id="46981"></path><path d="M954.865715 614.225574h68.165921v68.165921h-68.165921zM886.696787 614.225574h68.165921v68.165921h-68.165921z" fill="#E83A3A" p-id="46982"></path><path d="M818.536881 614.225574h68.165921v68.165921h-68.165921z" fill="#FFFFFF" p-id="46983"></path><path d="M205.039084 818.72484h68.16592v68.165921h-68.16592zM818.536881 818.72484h68.165921v68.165921h-68.165921zM0.539818 682.392999h68.165921v68.16592H0.539818z" fill="#231815" p-id="46984"></path><path d="M68.71025 682.392999h68.16592v68.16592H68.71025z" fill="#E83A3A" p-id="46985"></path><path d="M136.880681 682.392999h68.165921v68.16592H136.880681z" fill="#231815" p-id="46986"></path><path d="M205.039084 682.392999h68.16592v68.16592h-68.16592zM1023.036147 682.392999h68.165921v68.16592h-68.165921z" fill="#231815" p-id="46987"></path><path d="M954.865715 682.392999h68.165921v68.16592h-68.165921z" fill="#E83A3A" p-id="46988"></path><path d="M886.696787 682.392999h68.165921v68.16592h-68.165921z" fill="#231815" p-id="46989"></path><path d="M818.536881 682.392999h68.165921v68.16592h-68.165921zM205.039084 886.889257h68.16592v68.165921h-68.16592zM818.536881 886.889257h68.165921v68.165921h-68.165921zM273.19899 955.059689h68.16592v68.16592h-68.16592zM477.708781 955.059689h68.165921v68.16592h-68.165921zM68.71025 750.557416h68.16592v68.16592H68.71025z" fill="#231815" p-id="46990"></path><path d="M886.696787 750.557416h68.165921v68.16592h-68.165921z" fill="#231815" p-id="46991"></path><path d="M818.536881 750.557416h68.165921v68.16592h-68.165921zM341.367918 955.059689h68.16592v68.16592h-68.16592zM545.867184 955.059689h68.16592v68.16592h-68.16592zM682.208047 955.059689h68.165921v68.16592h-68.165921zM136.880681 750.557416h68.165921v68.16592H136.880681z" fill="#231815" p-id="46992"></path><path d="M205.039084 750.557416h68.16592v68.16592h-68.16592z" fill="#FFFFFF" p-id="46993"></path><path d="M954.865715 750.557416h68.165921v68.16592h-68.165921zM409.538349 955.059689h68.165921v68.16592h-68.165921zM614.037615 955.059689h68.165921v68.16592h-68.165921zM750.378479 955.059689h68.16592v68.16592h-68.16592zM68.71025 341.558884h68.16592v68.165921H68.71025z" fill="#231815" p-id="46994"></path><path d="M136.880681 341.558884h68.165921v68.165921H136.880681z" fill="#FFFFFF" p-id="46995"></path><path d="M205.039084 341.558884h68.16592v68.165921h-68.16592z" fill="#FFFFFF" p-id="46996"></path><path d="M205.039084 137.059618h68.16592v68.165921h-68.16592z" fill="#231815" p-id="46997"></path><path d="M545.867184 68.892194h68.16592v68.165921h-68.16592zM545.867184 137.059618h68.16592v68.165921h-68.16592z" fill="#E83A3A" p-id="46998"></path><path d="M545.867184 205.227043h68.16592v68.16592h-68.16592zM545.867184 273.394467h68.16592v68.165921h-68.16592z" fill="#FFFFFF" p-id="46999"></path><path d="M545.867184 341.558884h68.16592v68.165921h-68.16592zM545.867184 409.726308h68.16592v68.165921h-68.16592z" fill="#E83A3A" p-id="47000"></path><path d="M545.867184 477.890725h68.16592v68.165921h-68.16592zM545.867184 546.05815h68.16592v68.16592h-68.16592z" fill="#E83A3A" p-id="47001"></path><path d="M545.867184 614.225574h68.16592v68.165921h-68.16592z" fill="#231815" p-id="47002"></path><path d="M545.867184 682.392999h68.16592v68.16592h-68.16592z" fill="#FFDFD2" p-id="47003"></path><path d="M545.867184 750.557416h68.16592v68.16592h-68.16592zM545.867184 818.72484h68.16592v68.165921h-68.16592z" fill="#FFFFFF" p-id="47004"></path><path d="M545.867184 886.889257h68.16592v68.165921h-68.16592z" fill="#FFDFD2" p-id="47005"></path><path d="M477.708781 0.727777h68.165921v68.165921h-68.165921zM341.367918 68.892194h68.16592v68.165921h-68.16592z" fill="#231815" p-id="47006"></path><path d="M341.367918 137.059618h68.16592v68.165921h-68.16592z" fill="#E83A3A" p-id="47007"></path><path d="M341.367918 205.227043h68.16592v68.16592h-68.16592zM341.367918 273.394467h68.16592v68.165921h-68.16592z" fill="#FFFFFF" p-id="47008"></path><path d="M341.367918 341.558884h68.16592v68.165921h-68.16592zM341.367918 409.726308h68.16592v68.165921h-68.16592z" fill="#E83A3A" p-id="47009"></path><path d="M341.367918 477.890725h68.16592v68.165921h-68.16592zM341.367918 546.05815h68.16592v68.16592h-68.16592z" fill="#E83A3A" p-id="47010"></path><path d="M341.367918 614.225574h68.16592v68.165921h-68.16592z" fill="#231815" p-id="47011"></path><path d="M341.367918 682.392999h68.16592v68.16592h-68.16592z" fill="#FFDFD2" p-id="47012"></path><path d="M341.367918 750.557416h68.16592v68.16592h-68.16592zM341.367918 818.72484h68.16592v68.165921h-68.16592z" fill="#FFFFFF" p-id="47013"></path><path d="M341.367918 886.889257h68.16592v68.165921h-68.16592z" fill="#FFDFD2" p-id="47014"></path><path d="M614.037615 68.892194h68.165921v68.165921h-68.165921zM614.037615 137.059618h68.165921v68.165921h-68.165921zM614.037615 205.227043h68.165921v68.16592h-68.165921zM614.037615 273.394467h68.165921v68.165921h-68.165921z" fill="#E83A3A" p-id="47015"></path><path d="M614.037615 341.558884h68.165921v68.165921h-68.165921z" fill="#E83A3A" p-id="47016"></path><path d="M614.037615 409.726308h68.165921v68.165921h-68.165921z" fill="#FFFFFF" p-id="47017"></path><path d="M614.037615 477.890725h68.165921v68.165921h-68.165921zM614.037615 546.05815h68.165921v68.16592h-68.165921z" fill="#FFFFFF" p-id="47018"></path><path d="M614.037615 614.225574h68.165921v68.165921h-68.165921zM614.037615 682.392999h68.165921v68.16592h-68.165921z" fill="#231815" p-id="47019"></path><path d="M614.037615 750.557416h68.165921v68.16592h-68.165921z" fill="#231815" p-id="47020"></path><path d="M614.037615 818.72484h68.165921v68.165921h-68.165921z" fill="#FFFFFF" p-id="47021"></path><path d="M614.037615 886.889257h68.165921v68.165921h-68.165921z" fill="#FFDFD2" p-id="47022"></path><path d="M545.867184 0.727777h68.16592v68.165921h-68.16592z" fill="#231815" p-id="47023"></path><path d="M409.538349 68.892194h68.165921v68.165921h-68.165921z" fill="#E83A3A" p-id="47024"></path><path d="M409.538349 137.059618h68.165921v68.165921h-68.165921zM409.538349 205.227043h68.165921v68.16592h-68.165921zM409.538349 273.394467h68.165921v68.165921h-68.165921z" fill="#FFFFFF" p-id="47025"></path><path d="M409.538349 341.558884h68.165921v68.165921h-68.165921z" fill="#FFFFFF" p-id="47026"></path><path d="M409.538349 409.726308h68.165921v68.165921h-68.165921z" fill="#E83A3A" p-id="47027"></path><path d="M409.538349 477.890725h68.165921v68.165921h-68.165921zM409.538349 546.05815h68.165921v68.16592h-68.165921z" fill="#E83A3A" p-id="47028"></path><path d="M409.538349 614.225574h68.165921v68.165921h-68.165921zM409.538349 682.392999h68.165921v68.16592h-68.165921z" fill="#231815" p-id="47029"></path><path d="M409.538349 750.557416h68.165921v68.16592h-68.165921z" fill="#231815" p-id="47030"></path><path d="M409.538349 818.72484h68.165921v68.165921h-68.165921z" fill="#FFFFFF" p-id="47031"></path><path d="M409.538349 886.889257h68.165921v68.165921h-68.165921z" fill="#FFDFD2" p-id="47032"></path><path d="M682.208047 68.892194h68.165921v68.165921h-68.165921z" fill="#231815" p-id="47033"></path><path d="M682.208047 137.059618h68.165921v68.165921h-68.165921z" fill="#FFFFFF" p-id="47034"></path><path d="M682.208047 205.227043h68.165921v68.16592h-68.165921zM682.208047 273.394467h68.165921v68.165921h-68.165921z" fill="#E83A3A" p-id="47035"></path><path d="M682.208047 341.558884h68.165921v68.165921h-68.165921zM682.208047 409.726308h68.165921v68.165921h-68.165921z" fill="#FFFFFF" p-id="47036"></path><path d="M682.208047 477.890725h68.165921v68.165921h-68.165921zM682.208047 546.05815h68.165921v68.16592h-68.165921z" fill="#FFFFFF" p-id="47037"></path><path d="M682.208047 614.225574h68.165921v68.165921h-68.165921z" fill="#231815" p-id="47038"></path><path d="M682.208047 682.392999h68.165921v68.16592h-68.165921z" fill="#FFDFD2" p-id="47039"></path><path d="M682.208047 750.557416h68.165921v68.16592h-68.165921zM682.208047 818.72484h68.165921v68.165921h-68.165921z" fill="#FFFFFF" p-id="47040"></path><path d="M682.208047 886.889257h68.165921v68.165921h-68.165921z" fill="#FFDFD2" p-id="47041"></path><path d="M614.037615 0.727777h68.165921v68.165921h-68.165921z" fill="#231815" p-id="47042"></path><path d="M477.708781 68.892194h68.165921v68.165921h-68.165921z" fill="#E83A3A" p-id="47043"></path><path d="M477.708781 137.059618h68.165921v68.165921h-68.165921zM477.708781 205.227043h68.165921v68.16592h-68.165921zM477.708781 273.394467h68.165921v68.165921h-68.165921z" fill="#FFFFFF" p-id="47044"></path><path d="M477.708781 341.558884h68.165921v68.165921h-68.165921z" fill="#FFFFFF" p-id="47045"></path><path d="M477.708781 409.726308h68.165921v68.165921h-68.165921z" fill="#E83A3A" p-id="47046"></path><path d="M477.708781 477.890725h68.165921v68.165921h-68.165921zM477.708781 546.05815h68.165921v68.16592h-68.165921z" fill="#E83A3A" p-id="47047"></path><path d="M477.708781 614.225574h68.165921v68.165921h-68.165921z" fill="#231815" p-id="47048"></path><path d="M477.708781 682.392999h68.165921v68.16592h-68.165921z" fill="#FFDFD2" p-id="47049"></path><path d="M477.708781 750.557416h68.165921v68.16592h-68.165921zM477.708781 818.72484h68.165921v68.165921h-68.165921z" fill="#FFFFFF" p-id="47050"></path><path d="M477.708781 886.889257h68.165921v68.165921h-68.165921z" fill="#FFDFD2" p-id="47051"></path><path d="M750.378479 68.892194h68.16592v68.165921h-68.16592z" fill="#231815" p-id="47052"></path><path d="M750.378479 137.059618h68.16592v68.165921h-68.16592z" fill="#FFFFFF" p-id="47053"></path><path d="M750.378479 205.227043h68.16592v68.16592h-68.16592zM750.378479 273.394467h68.16592v68.165921h-68.16592z" fill="#E83A3A" p-id="47054"></path><path d="M750.378479 341.558884h68.16592v68.165921h-68.16592zM750.378479 409.726308h68.16592v68.165921h-68.16592z" fill="#FFFFFF" p-id="47055"></path><path d="M750.378479 477.890725h68.16592v68.165921h-68.16592zM750.378479 546.05815h68.16592v68.16592h-68.16592z" fill="#FFFFFF" p-id="47056"></path><path d="M750.378479 614.225574h68.16592v68.165921h-68.16592zM750.378479 682.392999h68.16592v68.16592h-68.16592z" fill="#231815" p-id="47057"></path><path d="M750.378479 750.557416h68.16592v68.16592h-68.16592z" fill="#FFFFFF" p-id="47058"></path><path d="M750.378479 818.72484h68.16592v68.165921h-68.16592z" fill="#FFDFD2" p-id="47059"></path><path d="M750.378479 886.889257h68.16592v68.165921h-68.16592zM818.536881 137.059618h68.165921v68.165921h-68.165921z" fill="#231815" p-id="47060"></path></svg>