<?xml version="1.0" standalone="no"?><!DOCTYPE svg PUBLIC "-//W3C//DTD SVG 1.1//EN" "http://www.w3.org/Graphics/SVG/1.1/DTD/svg11.dtd"><svg t="1752847148469" class="icon" viewBox="0 0 1093 1024" version="1.1" xmlns="http://www.w3.org/2000/svg" p-id="88626" xmlns:xlink="http://www.w3.org/1999/xlink" width="213.4765625" height="200"><path d="M409.6 0h68.266165v68.266165H409.6zM273.058635 68.264659h68.266165v68.266165h-68.266165zM136.541365 204.8h68.266164v68.266165H136.541365z" fill="#231815" p-id="88627"></path><path d="M204.8 204.8h68.266165v68.266165H204.8z" fill="#61AD18" p-id="88628"></path><path d="M0 409.6h68.266165v68.266165H0z" fill="#231815" p-id="88629"></path><path d="M68.270682 409.6h68.266165v68.266165H68.270682zM136.541365 409.6h68.266164v68.266165H136.541365z" fill="#FFFFFF" p-id="88630"></path><path d="M204.8 409.6h68.266165v68.266165H204.8z" fill="#FFFFFF" p-id="88631"></path><path d="M0 546.132329h68.266165v68.266165H0z" fill="#231815" p-id="88632"></path><path d="M68.270682 546.132329h68.266165v68.266165H68.270682z" fill="#FFFFFF" p-id="88633"></path><path d="M136.541365 546.132329h68.266164v68.266165H136.541365z" fill="#61AD18" p-id="88634"></path><path d="M204.8 546.132329h68.266165v68.266165H204.8z" fill="#61AD18" p-id="88635"></path><path d="M1024 546.132329h68.266165v68.266165H1024z" fill="#231815" p-id="88636"></path><path d="M955.729318 546.132329h68.266164v68.266165h-68.266164z" fill="#61AD18" p-id="88637"></path><path d="M887.458635 546.132329h68.266165v68.266165h-68.266165z" fill="#FFFFFF" p-id="88638"></path><path d="M819.2 546.132329h68.266165v68.266165H819.2z" fill="#FFFFFF" p-id="88639"></path><path d="M955.729318 409.6h68.266164v68.266165h-68.266164z" fill="#231815" p-id="88640"></path><path d="M887.458635 409.6h68.266165v68.266165h-68.266165z" fill="#FFFFFF" p-id="88641"></path><path d="M819.2 409.6h68.266165v68.266165H819.2z" fill="#FFFFFF" p-id="88642"></path><path d="M887.458635 273.067671h68.266165v68.266164h-68.266165z" fill="#231815" p-id="88643"></path><path d="M819.2 273.067671h68.266165v68.266164H819.2zM273.058635 136.532329h68.266165v68.266165h-68.266165zM273.058635 204.8h68.266165v68.266165h-68.266165zM273.058635 273.067671h68.266165v68.266164h-68.266165z" fill="#61AD18" p-id="88644"></path><path d="M273.058635 341.332329h68.266165v68.266165h-68.266165zM273.058635 409.6h68.266165v68.266165h-68.266165z" fill="#61AD18" p-id="88645"></path><path d="M273.058635 477.864659h68.266165v68.266165h-68.266165zM273.058635 546.132329h68.266165v68.266165h-68.266165z" fill="#61AD18" p-id="88646"></path><path d="M273.058635 614.4h68.266165v68.266165h-68.266165zM273.058635 682.667671h68.266165v68.266164h-68.266165z" fill="#231815" p-id="88647"></path><path d="M273.058635 750.932329h68.266165v68.266165h-68.266165z" fill="#FFFFFF" p-id="88648"></path><path d="M273.058635 819.2h68.266165v68.266165h-68.266165z" fill="#FFDFD2" p-id="88649"></path><path d="M273.058635 887.464659h68.266165v68.266165h-68.266165zM136.541365 273.067671h68.266164v68.266164H136.541365z" fill="#231815" p-id="88650"></path><path d="M204.8 273.067671h68.266165v68.266164H204.8z" fill="#61AD18" p-id="88651"></path><path d="M0 477.864659h68.266165v68.266165H0z" fill="#231815" p-id="88652"></path><path d="M68.270682 477.864659h68.266165v68.266165H68.270682zM136.541365 477.864659h68.266164v68.266165H136.541365z" fill="#FFFFFF" p-id="88653"></path><path d="M204.8 477.864659h68.266165v68.266165H204.8z" fill="#61AD18" p-id="88654"></path><path d="M1024 477.864659h68.266165v68.266165H1024z" fill="#231815" p-id="88655"></path><path d="M955.729318 477.864659h68.266164v68.266165h-68.266164z" fill="#61AD18" p-id="88656"></path><path d="M887.458635 477.864659h68.266165v68.266165h-68.266165z" fill="#FFFFFF" p-id="88657"></path><path d="M819.2 477.864659h68.266165v68.266165H819.2z" fill="#FFFFFF" p-id="88658"></path><path d="M955.729318 341.332329h68.266164v68.266165h-68.266164z" fill="#231815" p-id="88659"></path><path d="M887.458635 341.332329h68.266165v68.266165h-68.266165z" fill="#61AD18" p-id="88660"></path><path d="M819.2 341.332329h68.266165v68.266165H819.2z" fill="#FFFFFF" p-id="88661"></path><path d="M887.458635 204.8h68.266165v68.266165h-68.266165z" fill="#231815" p-id="88662"></path><path d="M819.2 204.8h68.266165v68.266165H819.2z" fill="#61AD18" p-id="88663"></path><path d="M0 614.4h68.266165v68.266165H0z" fill="#231815" p-id="88664"></path><path d="M68.270682 614.4h68.266165v68.266165H68.270682zM136.541365 614.4h68.266164v68.266165H136.541365z" fill="#61AD18" p-id="88665"></path><path d="M204.8 614.4h68.266165v68.266165H204.8z" fill="#61AD18" p-id="88666"></path><path d="M1024 614.4h68.266165v68.266165H1024z" fill="#231815" p-id="88667"></path><path d="M955.729318 614.4h68.266164v68.266165h-68.266164zM887.458635 614.4h68.266165v68.266165h-68.266165z" fill="#61AD18" p-id="88668"></path><path d="M819.2 614.4h68.266165v68.266165H819.2z" fill="#FFFFFF" p-id="88669"></path><path d="M204.8 819.2h68.266165v68.266165H204.8zM819.2 819.2h68.266165v68.266165H819.2zM0 682.667671h68.266165v68.266164H0z" fill="#231815" p-id="88670"></path><path d="M68.270682 682.667671h68.266165v68.266164H68.270682z" fill="#61AD18" p-id="88671"></path><path d="M136.541365 682.667671h68.266164v68.266164H136.541365z" fill="#231815" p-id="88672"></path><path d="M204.8 682.667671h68.266165v68.266164H204.8zM1024 682.667671h68.266165v68.266164H1024z" fill="#231815" p-id="88673"></path><path d="M955.729318 682.667671h68.266164v68.266164h-68.266164z" fill="#61AD18" p-id="88674"></path><path d="M887.458635 682.667671h68.266165v68.266164h-68.266165z" fill="#231815" p-id="88675"></path><path d="M819.2 682.667671h68.266165v68.266164H819.2zM204.8 887.464659h68.266165v68.266165H204.8zM819.2 887.464659h68.266165v68.266165H819.2zM273.058635 955.735341h68.266165v68.266165h-68.266165zM477.870682 955.735341h68.266165v68.266165h-68.266165zM68.270682 750.932329h68.266165v68.266165H68.270682z" fill="#231815" p-id="88676"></path><path d="M887.458635 750.932329h68.266165v68.266165h-68.266165z" fill="#231815" p-id="88677"></path><path d="M819.2 750.932329h68.266165v68.266165H819.2zM341.329318 955.735341h68.266164v68.266165h-68.266164zM546.129318 955.735341h68.266164v68.266165h-68.266164zM682.670682 955.735341h68.266165v68.266165h-68.266165zM136.541365 750.932329h68.266164v68.266165H136.541365z" fill="#231815" p-id="88678"></path><path d="M204.8 750.932329h68.266165v68.266165H204.8z" fill="#FFFFFF" p-id="88679"></path><path d="M955.729318 750.932329h68.266164v68.266165h-68.266164zM409.6 955.735341h68.266165v68.266165H409.6zM614.4 955.735341h68.266165v68.266165H614.4zM750.941365 955.735341h68.266164v68.266165h-68.266164zM68.270682 341.332329h68.266165v68.266165H68.270682z" fill="#231815" p-id="88680"></path><path d="M136.541365 341.332329h68.266164v68.266165H136.541365z" fill="#FFFFFF" p-id="88681"></path><path d="M204.8 341.332329h68.266165v68.266165H204.8z" fill="#FFFFFF" p-id="88682"></path><path d="M204.8 136.532329h68.266165v68.266165H204.8z" fill="#231815" p-id="88683"></path><path d="M546.129318 68.264659h68.266164v68.266165h-68.266164zM546.129318 136.532329h68.266164v68.266165h-68.266164z" fill="#61AD18" p-id="88684"></path><path d="M546.129318 204.8h68.266164v68.266165h-68.266164zM546.129318 273.067671h68.266164v68.266164h-68.266164z" fill="#FFFFFF" p-id="88685"></path><path d="M546.129318 341.332329h68.266164v68.266165h-68.266164zM546.129318 409.6h68.266164v68.266165h-68.266164z" fill="#61AD18" p-id="88686"></path><path d="M546.129318 477.864659h68.266164v68.266165h-68.266164zM546.129318 546.132329h68.266164v68.266165h-68.266164z" fill="#61AD18" p-id="88687"></path><path d="M546.129318 614.4h68.266164v68.266165h-68.266164z" fill="#231815" p-id="88688"></path><path d="M546.129318 682.667671h68.266164v68.266164h-68.266164z" fill="#FFDFD2" p-id="88689"></path><path d="M546.129318 750.932329h68.266164v68.266165h-68.266164zM546.129318 819.2h68.266164v68.266165h-68.266164z" fill="#FFFFFF" p-id="88690"></path><path d="M546.129318 887.464659h68.266164v68.266165h-68.266164z" fill="#FFDFD2" p-id="88691"></path><path d="M477.870682 0h68.266165v68.266165h-68.266165zM341.329318 68.264659h68.266164v68.266165h-68.266164z" fill="#231815" p-id="88692"></path><path d="M341.329318 136.532329h68.266164v68.266165h-68.266164z" fill="#61AD18" p-id="88693"></path><path d="M341.329318 204.8h68.266164v68.266165h-68.266164zM341.329318 273.067671h68.266164v68.266164h-68.266164z" fill="#FFFFFF" p-id="88694"></path><path d="M341.329318 341.332329h68.266164v68.266165h-68.266164zM341.329318 409.6h68.266164v68.266165h-68.266164z" fill="#61AD18" p-id="88695"></path><path d="M341.329318 477.864659h68.266164v68.266165h-68.266164zM341.329318 546.132329h68.266164v68.266165h-68.266164z" fill="#61AD18" p-id="88696"></path><path d="M341.329318 614.4h68.266164v68.266165h-68.266164z" fill="#231815" p-id="88697"></path><path d="M341.329318 682.667671h68.266164v68.266164h-68.266164z" fill="#FFDFD2" p-id="88698"></path><path d="M341.329318 750.932329h68.266164v68.266165h-68.266164zM341.329318 819.2h68.266164v68.266165h-68.266164z" fill="#FFFFFF" p-id="88699"></path><path d="M341.329318 887.464659h68.266164v68.266165h-68.266164z" fill="#FFDFD2" p-id="88700"></path><path d="M614.4 68.264659h68.266165v68.266165H614.4zM614.4 136.532329h68.266165v68.266165H614.4zM614.4 204.8h68.266165v68.266165H614.4zM614.4 273.067671h68.266165v68.266164H614.4z" fill="#61AD18" p-id="88701"></path><path d="M614.4 341.332329h68.266165v68.266165H614.4z" fill="#61AD18" p-id="88702"></path><path d="M614.4 409.6h68.266165v68.266165H614.4z" fill="#FFFFFF" p-id="88703"></path><path d="M614.4 477.864659h68.266165v68.266165H614.4zM614.4 546.132329h68.266165v68.266165H614.4z" fill="#FFFFFF" p-id="88704"></path><path d="M614.4 614.4h68.266165v68.266165H614.4zM614.4 682.667671h68.266165v68.266164H614.4z" fill="#231815" p-id="88705"></path><path d="M614.4 750.932329h68.266165v68.266165H614.4z" fill="#231815" p-id="88706"></path><path d="M614.4 819.2h68.266165v68.266165H614.4z" fill="#FFFFFF" p-id="88707"></path><path d="M614.4 887.464659h68.266165v68.266165H614.4z" fill="#FFDFD2" p-id="88708"></path><path d="M546.129318 0h68.266164v68.266165h-68.266164z" fill="#231815" p-id="88709"></path><path d="M409.6 68.264659h68.266165v68.266165H409.6z" fill="#61AD18" p-id="88710"></path><path d="M409.6 136.532329h68.266165v68.266165H409.6zM409.6 204.8h68.266165v68.266165H409.6zM409.6 273.067671h68.266165v68.266164H409.6z" fill="#FFFFFF" p-id="88711"></path><path d="M409.6 341.332329h68.266165v68.266165H409.6z" fill="#FFFFFF" p-id="88712"></path><path d="M409.6 409.6h68.266165v68.266165H409.6z" fill="#61AD18" p-id="88713"></path><path d="M409.6 477.864659h68.266165v68.266165H409.6zM409.6 546.132329h68.266165v68.266165H409.6z" fill="#61AD18" p-id="88714"></path><path d="M409.6 614.4h68.266165v68.266165H409.6zM409.6 682.667671h68.266165v68.266164H409.6z" fill="#231815" p-id="88715"></path><path d="M409.6 750.932329h68.266165v68.266165H409.6z" fill="#231815" p-id="88716"></path><path d="M409.6 819.2h68.266165v68.266165H409.6z" fill="#FFFFFF" p-id="88717"></path><path d="M409.6 887.464659h68.266165v68.266165H409.6z" fill="#FFDFD2" p-id="88718"></path><path d="M682.670682 68.264659h68.266165v68.266165h-68.266165z" fill="#231815" p-id="88719"></path><path d="M682.670682 136.532329h68.266165v68.266165h-68.266165z" fill="#FFFFFF" p-id="88720"></path><path d="M682.670682 204.8h68.266165v68.266165h-68.266165zM682.670682 273.067671h68.266165v68.266164h-68.266165z" fill="#61AD18" p-id="88721"></path><path d="M682.670682 341.332329h68.266165v68.266165h-68.266165zM682.670682 409.6h68.266165v68.266165h-68.266165z" fill="#FFFFFF" p-id="88722"></path><path d="M682.670682 477.864659h68.266165v68.266165h-68.266165zM682.670682 546.132329h68.266165v68.266165h-68.266165z" fill="#FFFFFF" p-id="88723"></path><path d="M682.670682 614.4h68.266165v68.266165h-68.266165z" fill="#231815" p-id="88724"></path><path d="M682.670682 682.667671h68.266165v68.266164h-68.266165z" fill="#FFDFD2" p-id="88725"></path><path d="M682.670682 750.932329h68.266165v68.266165h-68.266165zM682.670682 819.2h68.266165v68.266165h-68.266165z" fill="#FFFFFF" p-id="88726"></path><path d="M682.670682 887.464659h68.266165v68.266165h-68.266165z" fill="#FFDFD2" p-id="88727"></path><path d="M614.4 0h68.266165v68.266165H614.4z" fill="#231815" p-id="88728"></path><path d="M477.870682 68.264659h68.266165v68.266165h-68.266165z" fill="#61AD18" p-id="88729"></path><path d="M477.870682 136.532329h68.266165v68.266165h-68.266165zM477.870682 204.8h68.266165v68.266165h-68.266165zM477.870682 273.067671h68.266165v68.266164h-68.266165z" fill="#FFFFFF" p-id="88730"></path><path d="M477.870682 341.332329h68.266165v68.266165h-68.266165z" fill="#FFFFFF" p-id="88731"></path><path d="M477.870682 409.6h68.266165v68.266165h-68.266165z" fill="#61AD18" p-id="88732"></path><path d="M477.870682 477.864659h68.266165v68.266165h-68.266165zM477.870682 546.132329h68.266165v68.266165h-68.266165z" fill="#61AD18" p-id="88733"></path><path d="M477.870682 614.4h68.266165v68.266165h-68.266165z" fill="#231815" p-id="88734"></path><path d="M477.870682 682.667671h68.266165v68.266164h-68.266165z" fill="#FFDFD2" p-id="88735"></path><path d="M477.870682 750.932329h68.266165v68.266165h-68.266165zM477.870682 819.2h68.266165v68.266165h-68.266165z" fill="#FFFFFF" p-id="88736"></path><path d="M477.870682 887.464659h68.266165v68.266165h-68.266165z" fill="#FFDFD2" p-id="88737"></path><path d="M750.941365 68.264659h68.266164v68.266165h-68.266164z" fill="#231815" p-id="88738"></path><path d="M750.941365 136.532329h68.266164v68.266165h-68.266164z" fill="#FFFFFF" p-id="88739"></path><path d="M750.941365 204.8h68.266164v68.266165h-68.266164zM750.941365 273.067671h68.266164v68.266164h-68.266164z" fill="#61AD18" p-id="88740"></path><path d="M750.941365 341.332329h68.266164v68.266165h-68.266164zM750.941365 409.6h68.266164v68.266165h-68.266164z" fill="#FFFFFF" p-id="88741"></path><path d="M750.941365 477.864659h68.266164v68.266165h-68.266164zM750.941365 546.132329h68.266164v68.266165h-68.266164z" fill="#FFFFFF" p-id="88742"></path><path d="M750.941365 614.4h68.266164v68.266165h-68.266164zM750.941365 682.667671h68.266164v68.266164h-68.266164z" fill="#231815" p-id="88743"></path><path d="M750.941365 750.932329h68.266164v68.266165h-68.266164z" fill="#FFFFFF" p-id="88744"></path><path d="M750.941365 819.2h68.266164v68.266165h-68.266164z" fill="#FFDFD2" p-id="88745"></path><path d="M750.941365 887.464659h68.266164v68.266165h-68.266164zM819.2 136.532329h68.266165v68.266165H819.2z" fill="#231815" p-id="88746"></path></svg>