<?xml version="1.0" standalone="no"?><!DOCTYPE svg PUBLIC "-//W3C//DTD SVG 1.1//EN" "http://www.w3.org/Graphics/SVG/1.1/DTD/svg11.dtd"><svg t="1759652010447" class="icon" viewBox="0 0 1024 1024" version="1.1" xmlns="http://www.w3.org/2000/svg" p-id="21788" xmlns:xlink="http://www.w3.org/1999/xlink" width="200" height="200"><path d="M512 938.666667C276.352 938.666667 85.333333 747.648 85.333333 512S276.352 85.333333 512 85.333333s426.666667 191.018667 426.666667 426.666667-191.018667 426.666667-426.666667 426.666667z m0-85.333334a341.333333 341.333333 0 1 0 0-682.666666 341.333333 341.333333 0 0 0 0 682.666666z m79.701333-384H597.333333a42.666667 42.666667 0 0 1 0 85.333334h-42.666666v42.666666h42.666666a42.666667 42.666667 0 0 1 0 85.333334h-42.666666v42.666666a42.666667 42.666667 0 0 1-85.333334 0v-42.666666h-42.666666a42.666667 42.666667 0 0 1 0-85.333334h42.666666v-42.666666h-42.666666a42.666667 42.666667 0 0 1 0-85.333334h5.632L367.189333 339.072a42.666667 42.666667 0 0 1 76.288-38.144L512 437.888l68.522667-136.96a42.666667 42.666667 0 0 1 76.288 38.144L591.701333 469.333333z" fill="#ffffff" p-id="21789"></path></svg>