<?xml version="1.0" standalone="no"?><!DOCTYPE svg PUBLIC "-//W3C//DTD SVG 1.1//EN" "http://www.w3.org/Graphics/SVG/1.1/DTD/svg11.dtd"><svg t="1758978860971" class="icon" viewBox="0 0 1024 1024" version="1.1" xmlns="http://www.w3.org/2000/svg" p-id="5790" xmlns:xlink="http://www.w3.org/1999/xlink" width="200" height="200"><path d="M512 0C229.888 0 0 229.888 0 512s229.888 512 512 512 512-229.888 512-512S794.112 0 512 0z m173.056 921.6c-54.784 23.04-112.64 34.816-173.056 34.816s-118.272-11.776-173.056-34.816c-53.248-22.528-100.352-54.272-141.312-95.232-40.96-40.96-72.704-88.576-95.232-141.312-23.04-54.784-34.816-112.64-34.816-173.056s11.776-118.272 34.816-173.056c22.528-53.248 54.272-100.352 95.232-141.312 40.96-40.96 88.576-72.704 141.312-95.232 54.784-23.04 112.64-34.816 173.056-34.816s118.272 11.776 173.056 34.816c53.248 22.528 100.352 54.272 141.312 95.232 40.96 40.96 72.704 88.576 95.232 141.312 23.04 54.784 34.816 112.64 34.816 173.056s-11.776 118.272-34.816 173.056c-22.016 52.736-54.272 100.352-95.232 141.312-40.96 40.96-88.576 72.704-141.312 95.232z" fill="#2c2c2c" p-id="5791"></path><path d="M833.536 624.64c0-80.896-65.536-146.432-146.432-146.432h-141.312V290.816h141.312c43.52 0 78.848 35.328 78.848 78.848 0 18.432 15.36 33.792 33.792 33.792 18.432 0 33.792-15.36 33.792-33.792 0-80.896-65.536-146.432-146.432-146.432h-141.312V156.16c0-18.432-15.36-33.792-33.792-33.792s-33.792 15.36-33.792 33.792v67.072H337.92c-80.896 0-146.432 65.536-146.432 146.432V399.36c0 80.896 65.536 146.432 146.432 146.432h140.288v187.392H337.92c-43.52 0-78.848-35.328-78.848-78.848 0-18.432-15.36-33.792-33.792-33.792s-33.792 15.36-33.792 33.792c0 80.896 65.536 146.432 146.432 146.432h140.288v68.608c0 18.432 15.36 33.792 33.792 33.792s33.792-15.36 33.792-33.792v-68.608h141.312c80.896 0 146.432-65.536 146.432-146.432V624.64z m-146.432 108.544h-141.312v-187.392h141.312c43.52 0 78.848 35.328 78.848 78.848v30.208c0 43.008-35.328 78.336-78.848 78.336z m-428.032-363.52c0-43.52 35.328-78.848 78.848-78.848h140.288v187.392H337.92c-43.52 0-78.848-35.328-78.848-78.848v-29.696z" fill="#2c2c2c" p-id="5792"></path></svg>