<?xml version="1.0" standalone="no"?><!DOCTYPE svg PUBLIC "-//W3C//DTD SVG 1.1//EN" "http://www.w3.org/Graphics/SVG/1.1/DTD/svg11.dtd"><svg t="1763118952385" class="icon" viewBox="0 0 1024 1024" version="1.1" xmlns="http://www.w3.org/2000/svg" p-id="8314" xmlns:xlink="http://www.w3.org/1999/xlink" width="200" height="200"><path d="M290.6 294.7h50.6c15.5 0 28.3-12.7 28.3-28.3V154.7c0-15.5-12.7-28.3-28.3-28.3h-50.6c-15.5 0-28.3 12.7-28.3 28.3v111.8c0 15.5 12.7 28.2 28.3 28.2z m391.3 0h50.6c15.5 0 28.3-12.7 28.3-28.3V154.7c0-15.5-12.7-28.3-28.3-28.3h-50.6c-15.5 0-28.3 12.7-28.3 28.3v111.8c0 15.5 12.7 28.2 28.3 28.2z" fill="#ffffff" p-id="8315"></path><path d="M837.2 239.3h-53.7v42.5c0 18.1-14 33-31.2 33h-89.8c-17.2 0-31.2-14.8-31.2-33v-42.5H392.8v42.5c0 18.1-14 33-31.2 33h-89.8c-17.2 0-31.2-14.8-31.2-33v-42.5h-53.7c-41.2 0-74.8 35.6-74.8 79.1v480c0 43.5 33.7 79.1 74.8 79.1h650.3c41.2 0 74.8-35.6 74.8-79.1v-480c0-43.6-33.7-79.1-74.8-79.1zM379.9 798.8c0 5.8-4.7 10.5-10.5 10.5h-76.8c-5.8 0-10.5-4.7-10.5-10.5V641.6c0-5.8 4.7-10.5 10.5-10.5h76.8c5.8 0 10.5 4.7 10.5 10.5v157.2z m185-2.3c0 7-5.7 12.8-12.8 12.8H480c-7 0-12.8-5.7-12.8-12.8V556.9c0-7 5.7-12.8 12.8-12.8h72.2c7 0 12.8 5.7 12.8 12.8v239.6zM534 461.3l-31.1-48.6c-3.9-3.4-9.4-3.8-13.6-1l-192 81.2c-1.6 1-3.4 1.5-5.1 1.5-3.4 0-6.7-1.9-8.5-5.2-2.8-5.1-1.3-11.7 3.4-14.7l192-81.2c11.4-7.4 26.1-6.3 36.4 2.8l31.1 48.6c6.9 6 16.4 7.7 24.7 4.4l161.3-64.2c5.2-2.1 10.9 0.8 12.8 6.3 1.9 5.5-0.7 11.7-5.9 13.8l-161.3 64.2c-15 5.9-31.9 2.9-44.2-7.9z m211.9 334.2c0 7.6-6.2 13.8-13.8 13.8H662c-7.6 0-13.8-6.2-13.8-13.8v-282c0-7.6 6.2-13.8 13.8-13.8h70.2c7.6 0 13.8 6.2 13.8 13.8v282z" fill="#ffffff" p-id="8316"></path></svg>