<?xml version="1.0" standalone="no"?><!DOCTYPE svg PUBLIC "-//W3C//DTD SVG 1.1//EN" "http://www.w3.org/Graphics/SVG/1.1/DTD/svg11.dtd"><svg t="1759627913417" class="icon" viewBox="0 0 1024 1024" version="1.1" xmlns="http://www.w3.org/2000/svg" p-id="5117" xmlns:xlink="http://www.w3.org/1999/xlink" width="200" height="200"><path d="M1008.127102 931.908008l-236.43278-236.464777a429.348361 429.348361 0 0 0 90.554171-264.398979C862.248493 192.979577 669.236918 0 431.044252 0 192.947579 0 0 192.979577 0 431.076249c0 238.160668 192.947579 431.140245 431.076249 431.140246 99.641586 0 191.443676-33.821823 264.462976-90.522173l236.400781 236.400782a53.532554 53.532554 0 0 0 76.155098-0.031998c21.11864-21.054645 21.11864-55.164449 0.031998-76.155098zM107.833058 431.076249C107.833058 252.783727 252.783727 107.80106 431.044252 107.80106c178.388516 0 323.371183 144.982667 323.371183 323.275189 0 178.356518-144.982667 323.339185-323.371183 323.339186-178.260524 0-323.211193-144.982667-323.211194-323.339186z m0 0" p-id="5118" fill="#868E9B"></path></svg>