<?xml version="1.0" standalone="no"?><!DOCTYPE svg PUBLIC "-//W3C//DTD SVG 1.1//EN" "http://www.w3.org/Graphics/SVG/1.1/DTD/svg11.dtd"><svg t="1752042911566" class="icon" viewBox="0 0 1024 1024" version="1.1" xmlns="http://www.w3.org/2000/svg" p-id="2372" xmlns:xlink="http://www.w3.org/1999/xlink" width="200" height="200"><path d="M768 469.333333a298.666667 298.666667 0 1 1-597.333333 0 298.666667 298.666667 0 0 1 597.333333 0z m-85.333333 0q0-88.362667-62.464-150.869333Q557.653333 256 469.333333 256 380.970667 256 318.464 318.464 256 381.013333 256 469.333333q0 88.362667 62.464 150.869334Q381.013333 682.666667 469.333333 682.666667q88.362667 0 150.869334-62.464Q682.666667 557.653333 682.666667 469.333333z" p-id="2373" fill="#2c2c2c"></path><path d="M627.498667 670.165333a42.666667 42.666667 0 0 0 0 60.330667l120.704 120.704a42.666667 42.666667 0 0 0 60.330666-60.330667l-120.704-120.704a42.666667 42.666667 0 0 0-60.330666 0z" p-id="2374" fill="#2c2c2c"></path></svg>