<?xml version="1.0" standalone="no"?><!DOCTYPE svg PUBLIC "-//W3C//DTD SVG 1.1//EN" "http://www.w3.org/Graphics/SVG/1.1/DTD/svg11.dtd"><svg t="1759911377147" class="icon" viewBox="0 0 1024 1024" version="1.1" xmlns="http://www.w3.org/2000/svg" p-id="5426" xmlns:xlink="http://www.w3.org/1999/xlink" width="200" height="200"><path d="M1011.136 415.04L536.8 4.8c-6.4-6.4-19.232-6.4-25.664 0L36.8 415.04c-6.4 6.4-6.4 19.232 0 32.064 6.4 0 19.232 6.4 25.664 0l32.032-25.632v589.696h6.4c0 6.4 0 12.832 6.4 12.832 0-6.4 6.432 0 12.832 0h794.88c6.4 0 6.4 0 12.8-6.4s6.4-6.4 6.4-12.832V415.04l51.296 32.064c6.4 6.4 19.2 6.4 25.6 0 12.832-12.8 12.832-25.632 0-32.064z m-467.936 205.12h134.592c12.832 0 25.664 12.832 25.664 25.664 0 12.8-12.832 25.6-25.664 25.6h-128.192v70.528h128.192c12.832 0 25.664 12.8 25.664 25.664 0 12.8-12.832 25.6-25.664 25.6h-128.192v83.36c0 12.8-12.8 25.632-25.632 25.632-12.8 0-32.064-6.4-32.064-19.2v-83.36h-128.192c-19.2 0-32.032-12.8-32.032-32.032 0-19.232 12.8-25.664 25.6-25.664h128.224v-70.496h-128.192c-12.8 0-25.632-12.8-25.632-25.632s12.8-25.664 25.6-25.664h134.624v-6.4s-6.4 0-6.4-6.4l-96.16-115.392c-6.4-12.8-6.4-25.632 6.4-38.464 6.432-6.4 25.664-6.4 38.496 6.4l89.728 102.592 89.728-102.592c6.4-12.8 19.232-12.8 32.064-6.4 12.8 12.8 12.8 25.632 6.4 38.464l-102.56 121.792-6.4 6.4z" p-id="5427" fill="#8DA6BC"></path></svg>