<?xml version="1.0" standalone="no"?><!DOCTYPE svg PUBLIC "-//W3C//DTD SVG 1.1//EN" "http://www.w3.org/Graphics/SVG/1.1/DTD/svg11.dtd"><svg t="1763118730322" class="icon" viewBox="0 0 1024 1024" version="1.1" xmlns="http://www.w3.org/2000/svg" p-id="7133" xmlns:xlink="http://www.w3.org/1999/xlink" width="200" height="200"><path d="M257.536 667.648c4.608-4.608 10.752-7.168 17.408-7.168h602.112c10.752 0 16.384 13.312 8.704 20.992l-118.784 118.784c-4.608 4.608-10.752 7.168-17.408 7.168H146.944c-10.752 0-16.384-13.312-8.704-20.992l119.296-118.784z" fill="#C931F7" p-id="7134"></path><path d="M257.536 223.744c4.608-4.608 10.752-7.168 17.408-7.168h602.112c10.752 0 16.384 13.312 8.704 20.992l-118.784 118.784c-4.608 4.608-10.752 7.168-17.408 7.168H146.944c-10.752 0-16.384-13.312-8.704-20.992l119.296-118.784z" fill="#1CE2AF" p-id="7135"></path><path d="M766.464 444.416c-4.608-4.608-10.752-7.168-17.408-7.168H146.944c-10.752 0-16.384 13.312-8.704 20.992l118.784 118.784c4.608 4.608 10.752 7.168 17.408 7.168h602.112c10.752 0 16.384-13.312 8.704-20.992l-118.784-118.784z" fill="#6697CE" p-id="7136"></path></svg>