<?xml version="1.0" standalone="no"?><!DOCTYPE svg PUBLIC "-//W3C//DTD SVG 1.1//EN" "http://www.w3.org/Graphics/SVG/1.1/DTD/svg11.dtd"><svg t="1752563422350" class="icon" viewBox="0 0 1024 1024" version="1.1" xmlns="http://www.w3.org/2000/svg" p-id="7233" xmlns:xlink="http://www.w3.org/1999/xlink" width="200" height="200"><path d="M512 1024c283.73504 0 512-228.26496 512-512S795.73504 0 512 0 0 228.26496 0 512s228.26496 512 512 512z" fill="#2775CA" p-id="7234"></path><path d="M652.8 593.06496c0-74.66496-44.8-100.26496-134.4-110.92992-64-8.53504-76.8-25.6-76.8-55.47008s21.33504-49.06496 64-49.06496c38.4 0 59.73504 12.8 70.4 44.8 2.13504 6.4 8.53504 10.66496 14.93504 10.66496h34.12992c8.53504 0 14.93504-6.4 14.93504-14.92992v-2.13504c-8.53504-46.93504-46.93504-83.2-96-87.46496v-51.2c0-8.53504-6.4-14.93504-17.06496-17.07008h-32c-8.53504 0-14.93504 6.4-17.07008 17.07008v49.06496c-64 8.53504-104.52992 51.2-104.52992 104.53504 0 70.4 42.66496 98.12992 132.26496 108.8 59.73504 10.66496 78.93504 23.46496 78.93504 57.6s-29.87008 57.6-70.4 57.6c-55.47008 0-74.67008-23.47008-81.07008-55.47008-2.12992-8.52992-8.52992-12.8-14.92992-12.8h-36.27008c-8.52992 0-14.92992 6.4-14.92992 14.93504v2.13504c8.52992 53.32992 42.66496 91.72992 113.06496 102.4v51.2c0 8.52992 6.4 14.92992 17.06496 17.06496h32c8.53504 0 14.93504-6.4 17.07008-17.06496v-51.2c64-10.67008 106.66496-55.47008 106.66496-113.07008z" fill="#FFFFFF" p-id="7235"></path><path d="M403.2 817.06496c-166.4-59.72992-251.73504-245.32992-189.86496-409.6 32-89.6 102.4-157.86496 189.86496-189.86496 8.53504-4.26496 12.8-10.66496 12.8-21.33504V166.4c0-8.53504-4.26496-14.93504-12.8-17.06496-2.13504 0-6.4 0-8.53504 2.12992-202.66496 64-313.6 279.47008-249.6 482.13504 38.4 119.46496 130.13504 211.2 249.6 249.6 8.53504 4.26496 17.07008 0 19.2-8.53504 2.13504-2.12992 2.13504-4.26496 2.13504-8.52992v-29.87008c0-6.4-6.4-14.92992-12.8-19.2z m226.13504-665.6c-8.53504-4.26496-17.07008 0-19.2 8.53504-2.13504 2.13504-2.13504 4.26496-2.13504 8.53504v29.86496c0 8.53504 6.4 17.06496 12.8 21.33504 166.4 59.72992 251.73504 245.32992 189.86496 409.6-32 89.6-102.4 157.86496-189.86496 189.86496-8.53504 4.26496-12.8 10.66496-12.8 21.33504V870.4c0 8.53504 4.26496 14.93504 12.8 17.06496 2.13504 0 6.4 0 8.53504-2.12992 202.66496-64 313.6-279.47008 249.6-482.13504-38.4-121.6-132.27008-213.33504-249.6-251.73504z" fill="#FFFFFF" p-id="7236"></path></svg>