<?xml version="1.0" standalone="no"?><!DOCTYPE svg PUBLIC "-//W3C//DTD SVG 1.1//EN" "http://www.w3.org/Graphics/SVG/1.1/DTD/svg11.dtd"><svg t="1752563414974" class="icon" viewBox="0 0 1177 1024" version="1.1" xmlns="http://www.w3.org/2000/svg" p-id="6209" xmlns:xlink="http://www.w3.org/1999/xlink" width="229.8828125" height="200"><path d="M215.536827 5.029274l-214.635144 450.841312a8.739385 8.739385 0 0 0 1.872725 10.19595l579.677888 555.471177a8.843426 8.843426 0 0 0 12.242075 0L1174.372259 466.101216a8.739385 8.739385 0 0 0 1.872725-10.19595l-214.635145-450.841312A8.670025 8.670025 0 0 0 953.702776 0.000659H223.513251a8.670025 8.670025 0 0 0-7.976424 5.028615z" fill="#50AF95" p-id="6210"></path><path d="M663.04885 502.168521c-4.161612 0.312121-25.663275 1.595285-73.625854 1.595284-38.148111 0-65.23327-1.144443-74.735618-1.595284-147.425109-6.485179-257.46507-32.148454-257.465069-62.875023s110.03996-56.355164 257.465069-62.944383v100.260171c9.641068 0.693602 37.246428 2.323567 75.39454 2.323567 45.777733 0 68.70128-1.907406 72.828212-2.288886v-100.225492c147.112988 6.554539 256.910188 32.217814 256.910188 62.875023s-109.76252 56.320484-256.910188 62.840343z m0-136.119396V276.331703h205.306198V139.518705H309.381181v136.812998h205.271517v89.682741c-166.845966 7.664302-292.318571 40.714439-292.318571 80.319114s125.472605 72.620131 292.318571 80.319114v287.498037h148.361472v-287.602077c166.464485-7.664302 291.729009-40.679758 291.729009-80.249754s-125.160484-72.585451-291.729009-80.284434z m0 0z" fill="#FFFFFF" p-id="6211"></path></svg>