<?xml version="1.0" standalone="no"?><!DOCTYPE svg PUBLIC "-//W3C//DTD SVG 1.1//EN" "http://www.w3.org/Graphics/SVG/1.1/DTD/svg11.dtd"><svg t="1759922553912" class="icon" viewBox="0 0 1024 1024" version="1.1" xmlns="http://www.w3.org/2000/svg" p-id="8949" xmlns:xlink="http://www.w3.org/1999/xlink" width="200" height="200"><path d="M678.4 486.4C678.4 396.8 601.6 320 512 320 422.4 320 345.6 396.8 345.6 486.4c0 89.6 76.8 166.4 166.4 166.4 89.6 0 166.4-70.4 166.4-166.4m76.8 249.6c51.2 38.4 96 83.2 121.6 140.8C966.4 780.8 1024 652.8 1024 512c0-281.6-230.4-512-512-512S0 230.4 0 512c0 140.8 57.6 268.8 147.2 358.4 44.8-83.2 121.6-147.2 204.8-185.6C294.4 640 256 569.6 256 486.4c0-140.8 115.2-256 256-256s256 115.2 256 256-115.2 256-256 256c-128 0-243.2 70.4-294.4 185.6C300.8 985.6 403.2 1024 512 1024c108.8 0 211.2-32 294.4-96-19.2-51.2-57.6-89.6-102.4-128-19.2-12.8-25.6-38.4-6.4-57.6 12.8-19.2 38.4-25.6 57.6-6.4" fill="#8DA6BC" p-id="8950"></path></svg>