<?xml version="1.0" standalone="no"?><!DOCTYPE svg PUBLIC "-//W3C//DTD SVG 1.1//EN" "http://www.w3.org/Graphics/SVG/1.1/DTD/svg11.dtd"><svg t="1763119001339" class="icon" viewBox="0 0 1024 1024" version="1.1" xmlns="http://www.w3.org/2000/svg" p-id="11130" xmlns:xlink="http://www.w3.org/1999/xlink" width="200" height="200"><path d="M512 1024C229.7 1024 0 794.3 0 512 0 304.79 123.52 119.22 314.68 39.41c18.48-7.6 40.12 1 47.86 19.63 7.74 18.63-1 39.98-19.63 47.72-163.79 68.5-269.68 227.41-269.68 405.1C73.08 754.03 269.97 950.92 512 950.92c177.69 0 336.75-105.9 405.1-269.69 7.74-18.77 29.37-27.37 47.72-19.63 18.63 7.74 27.37 29.09 19.63 47.72C904.78 900.48 719.21 1024 512 1024z m0 0" fill="#ffffff" p-id="11131"></path><path d="M987.46 548.54H512c-20.2 0-36.54-16.33-36.54-36.54V36.54C475.46 16.34 491.8 0 512 0c282.3 0 512 229.7 512 512 0 20.21-16.34 36.54-36.54 36.54z m-438.92-73.08h400.8c-17.62-212.8-187.86-383.18-400.8-400.8v400.8z m0 0" fill="#ffffff" p-id="11132"></path></svg>