<?xml version="1.0" standalone="no"?><!DOCTYPE svg PUBLIC "-//W3C//DTD SVG 1.1//EN" "http://www.w3.org/Graphics/SVG/1.1/DTD/svg11.dtd"><svg t="1752827625849" class="icon" viewBox="0 0 1024 1024" version="1.1" xmlns="http://www.w3.org/2000/svg" p-id="80144" xmlns:xlink="http://www.w3.org/1999/xlink" width="200" height="200"><path d="M64 192h128v64H64zM256 256h-64v192h128v-64h64v64h64v-64h64v64h64v-64h64v64h64v-64h64v64h64v-64h64v64h64V320H256z" fill="#ffffff" p-id="80145"></path><path d="M320 576h-64l-0.7-128.36L960 448v63.82l-64 0.18v64H768v-64h-64v64h-64v-64h-64v64h-64v-64l-64-0.18V576h-64v-64.18h-64zM255.3 640l0.7-64h576v64H384v64h448v64H320V640zM384 832h64v64h-64zM704 832h64v64h-64z" fill="#ffffff" p-id="80146"></path></svg>