<svg xmlns="http://www.w3.org/2000/svg" width="1564" height="1113"><path fill="#FCFCFC" d="M117 24c4.746 1.443 9.075 3.42 13.477 5.676l4.426 2.238 2.331 1.185c11.855 6.017 23.74 11.926 35.828 17.464a1370 1370 0 0 1 29.586 14.009q3.393 1.653 6.788 3.303a2994 2994 0 0 1 19.314 9.465l5.688 2.785 2.525 1.272 2.283 1.11 1.928.958c2.331.683 3.564.373 5.826-.465l2.75-2c3.756-2.311 6.887-3.218 11.25-3 5.882 1.438 11.268 3.93 16.563 6.813l2.117 1.132c7.886 4.27 15.6 8.848 23.297 13.445l2.98 1.766 2.656 1.588c2.166 1.14 3.995 1.799 6.387 2.256v2l2.125.813c8.546 3.53 8.546 3.53 9.875 6.187h4v2l2.125.813c8.546 3.53 8.546 3.53 9.875 6.187 2.314.73 4.648 1.401 7 2v2l2.188.813c7.205 3.042 7.205 3.042 9.582 7.527q.83 2.075 1.613 4.168l.897 2.27q.95 2.41 1.878 4.83c1.633 4.252 3.318 8.485 4.994 12.72l1.004 2.55c2.667 6.752 5.538 13.384 8.531 19.997 4.254 9.479 8.087 19.09 11.795 28.79 4.09 10.698 8.283 21.35 12.575 31.97q.998 2.472 1.992 4.947 1.394 3.465 2.799 6.926l.832 2.076c2.268 5.56 4.743 10.087 8.994 14.348l2.205 2.224c.78.778 1.562 1.555 2.367 2.356l2.447 2.453a2538 2538 0 0 0 5.122 5.11c2.617 2.607 5.223 5.223 7.828 7.841q2.488 2.487 4.978 4.97l2.362 2.374 2.214 2.196 1.938 1.932c1.875 1.621 3.636 2.558 5.865 3.612a85 85 0 0 1 4.188 4l2.105 2.125C465 314 465 314 466 316a281 281 0 0 0 5 5 2114 2114 0 0 1 9.145 9.18l4.668 4.695c.768.777 1.537 1.555 2.33 2.355a230 230 0 0 0 13.055 12.162c3.16 2.82 5.9 5.971 8.716 9.133a100 100 0 0 0 8.211 8.163C529.131 378.694 534.731 398.645 541 414l.878 2.148A7117 7117 0 0 1 556 451l1.402 3.48a4385 4385 0 0 1 12.157 30.547l.953 2.42.966 2.453.978 2.482 1.96 4.977a2232 2232 0 0 0 12.459 31.016A741 741 0 0 1 596.5 553c5.29 14.3 11.114 28.377 16.932 42.469 5.327 12.911 10.544 25.823 15.196 38.995l.911 2.575.788 2.256c.544 1.708.544 1.708 1.673 2.705 6.255-12.84 12.32-25.737 17.943-38.869a304 304 0 0 1 7.838-16.697c4.15-8.206 8.022-16.527 11.86-24.882 5.502-11.978 11.043-23.938 16.714-35.837l1.315-2.76q3.13-6.558 6.275-13.11l2.274-4.755 1.03-2.132c2.182-4.573 4.027-9.192 5.751-13.958h2l.293-2.012c.9-3.805 2.424-7.248 4.02-10.8l.95-2.147c2.12-4.749 4.335-9.428 6.737-14.041h2l1.14-3.742c2.018-6.046 4.806-11.67 7.61-17.383l3.215-6.656a760 760 0 0 1 5.414-10.938l1.01-2.042a504 504 0 0 1 2.6-5.153c2.013-6.142-.324-11.409-2.946-17.04l-.905-1.966a1172 1172 0 0 0-2.95-6.33 4817 4817 0 0 1-3.098-6.702q-1.045-2.264-2.093-4.524c-2.622-5.673-5.14-11.383-7.63-17.116-22.238-51.08-52.585-102.732-90.273-144.1-2.26-2.491-4.452-5.032-6.633-7.593-5.74-6.739-5.74-6.739-11.899-13.09C609 193 609 193 609 191h-2a136 136 0 0 1-5-5c-5.817-5.903-11.625-11.698-18-17l-1.469-1.24c-16.715-14.048-35.184-26.489-54.933-35.873l-2.204-1.057a186 186 0 0 0-4.169-1.917c-4.594-2.163-6.793-4.487-9.225-8.913-1.594-4.44-.703-7.665 1-12 2.918-3.549 5.48-5.973 10-7 9.346-.306 17.05 4.619 25 9l2.097 1.146C565.427 119.613 579.48 129.897 593 141q2.404 1.908 4.813 3.813c11.078 8.906 21.475 18.149 31.49 28.23 1.952 1.962 3.914 3.913 5.877 5.863 7.067 7.06 13.661 14.22 19.82 22.094a989 989 0 0 0 3.371 4.117C665.06 213.303 671.673 221.53 678 230l1.499 2.006a431 431 0 0 1 20.606 30.365 269 269 0 0 0 5.633 8.727c7.516 11.174 13.646 22.92 19.738 34.92 2.17 4.247 4.41 8.457 6.649 12.67 7.625 14.442 15.026 28.966 21.438 43.992 1.67 3.858 3.495 7.592 5.437 11.32l1.031-1.398A782 782 0 0 1 765 366l2.04-2.687 2.085-2.688 1.945-2.523c1.896-2.065 3.356-3.06 5.93-4.102l1.758 2.012c4.985 5.733 4.985 5.733 10.617 10.8 2.674 2.229 3.931 4.192 5.625 7.188a329 329 0 0 0 8.93-18.575C813.01 334.852 823.33 314.79 834 295l1.054-1.977c6.37-11.908 13.736-23.136 21.198-34.383a1001 1001 0 0 0 4.514-6.882c7.76-11.878 16.257-23.207 25.195-34.223a380 380 0 0 0 4.516-5.726c10.749-13.893 22.254-26.883 34.717-39.264 1.944-1.933 3.877-3.877 5.81-5.822C938.028 159.69 945.157 153.12 953 147q2.346-1.904 4.688-3.812c15.369-12.233 31.136-23.36 48.187-33.125l2.918-1.686c8.35-4.707 15.558-8.628 25.207-6.377 4.167 1.852 6.115 3.852 8 8 1.172 4.142 1.289 7.105-.312 11.063-4.48 7.858-14.668 10.932-22.455 14.776-22.613 11.26-42.396 26.79-60.746 44.015-2.539 2.38-5.104 4.675-7.803 6.873-2.706 1.99-2.706 1.99-3.684 4.273h-2l-.691 1.691c-2.22 3.917-5.662 6.69-8.899 9.774-2.292 2.411-3.71 4.7-5.41 7.535a156 156 0 0 1-5 5c-8.72 8.877-16.062 18.513-23.296 28.62a1218 1218 0 0 1-4.77 6.607c-16.93 23.478-31.826 48.477-45.447 73.996a1180 1180 0 0 1-4.382 8.086c-8.007 14.842-14.75 30.162-21.441 45.627a409 409 0 0 1-5.875 12.884l-1.443 3.047a369 369 0 0 1-2.641 5.424l-1.143 2.408-.996 2.026c-1.576 6.331 1.393 11.971 4.11 17.517l1.11 2.327c1.167 2.44 2.346 4.873 3.527 7.306a5990 5990 0 0 1 3.494 7.285 1439 1439 0 0 0 2.174 4.511c1.8 3.727 3.561 7.468 5.274 11.236l1.013 2.228C835 458 835 458 835 460h2c12 23.476 12 23.476 12 29h2l.786 1.977c3.578 8.802 7.63 17.345 11.74 25.908a2516 2516 0 0 1 20.349 43.428 1554 1554 0 0 0 16.29 34.6c5.186 10.706 10.094 21.535 14.988 32.377l.935 2.072q1.26 2.79 2.514 5.583A176 176 0 0 0 922 642c2.3-5.714 4.568-11.44 6.813-17.176 5.274-13.473 10.598-26.914 16.187-40.261 4.595-10.99 8.908-22.062 13.122-33.202 4.58-12.098 9.376-24.097 14.27-36.071a1799 1799 0 0 0 13.483-34.04c5.78-15.004 11.875-29.866 18.074-44.701a1397 1397 0 0 0 11.489-28.299c3.049-7.712 6.292-15.303 9.812-22.812l1.177-2.544c4.025-8.385 9.338-14.976 16.01-21.394 3.515-3.44 6.97-6.847 10.126-10.625 3.298-3.886 7.03-7.25 10.809-10.655 5.054-4.566 9.85-9.367 14.628-14.22 2.507-2.515 5.02-5.02 7.563-7.5 2.428-2.404 2.428-2.404 4.312-4.875 6.98-8.622 6.98-8.622 10.998-10.5 2.415-1.277 4.008-2.745 5.946-4.67l2.224-2.195 2.371-2.373 2.457-2.444a2460 2460 0 0 0 5.129-5.127c2.613-2.617 5.24-5.22 7.867-7.822q2.493-2.49 4.985-4.982l2.383-2.356 2.205-2.224 1.942-1.94c1.815-2.235 2.673-4.284 3.618-6.992l2.434-6.066 3.004-7.496.802-2.003c3.376-8.43 6.722-16.87 10.026-25.33 6.25-16.004 12.807-31.862 19.523-47.675l1.419-3.345q1.405-3.307 2.82-6.61c2.172-5.091 4.267-10.184 6.163-15.385l1.031-2.775q.932-2.53 1.79-5.087c1.959-5.292 4.257-7.67 9.177-10.44C1202 127 1202 127 1204 127l1-2 6-2 1-2c1.996-1.29 1.996-1.29 4.438-2.625l2.433-1.352C1221 116 1221 116 1223 116l1-2h3l1-2c1.996-1.29 1.996-1.29 4.438-2.625l2.433-1.352C1237 107 1237 107 1239 107l1-2c1.74-.954 3.519-1.838 5.313-2.687 6.426-3.134 12.549-6.652 18.687-10.313 25.758-15.36 25.758-15.36 34.383-13.48 6.041 1.816 6.041 1.816 8.066 4.152L1308 84c4.617-.42 8.513-2.536 12.598-4.578l2.234-1.098q2.378-1.17 4.751-2.346c4.218-2.089 8.444-4.158 12.67-6.228l2.561-1.255c6.851-3.35 13.751-6.574 20.686-9.745 12.767-5.857 25.385-12.01 38-18.187l2.966-1.453q4.252-2.082 8.503-4.169l2.696-1.319c3.765-1.847 7.521-3.704 11.237-5.65l3.254-1.695 2.682-1.433C1435 24 1435 24 1438 25c-1.239 6.18-2.906 12.05-5.02 17.984l-.894 2.552q-.95 2.706-1.906 5.41a3244 3244 0 0 0-3.005 8.539 6950 6950 0 0 1-9.038 25.577 9687 9687 0 0 0-3.548 10.013q-1.227 3.449-2.463 6.895c-2.14 6.012-4.192 11.957-5.61 18.19-1.003 4.27-2.39 8.072-4.176 12.078-4.62 10.393-8.104 21.195-11.777 31.95l-2.4 6.981q-1.83 5.314-3.655 10.63a5918 5918 0 0 1-11.07 31.888c-3.865 11.058-7.72 22.119-11.551 33.188-6.617 19.118-13.258 38.225-20.041 57.285-7.12 20.007-14.083 40.065-20.971 60.152l-.715 2.087-4.93 14.374-.689 2.01a7019 7019 0 0 1-14.136 40.749l-1.776 5.077-.886 2.532a6494 6494 0 0 0-6.84 19.687c-6.958 20.105-13.957 40.192-21.09 60.235-6.077 17.074-12.024 34.19-17.904 51.332q-2.497 7.278-5.002 14.551l-2.766 8.042-.68 1.975a2263 2263 0 0 0-7.596 22.432 2012 2012 0 0 1-3.568 10.605 438 438 0 0 0-1.548 4.7 393 393 0 0 1-2.093 6.26l-1.13 3.432C1226 637 1226 637 1223.1 638.337c-2.464.527-4.857 1.02-7.358 1.304l-2.402.308q-2.381.292-4.766.555c-6.981.921-13.497 2.912-20.202 4.986-11.324 3.471-22.822 6.264-34.31 9.135-17.605 4.344-17.605 4.344-35 9.44-5.809 1.773-11.71 3.199-17.605 4.655q-3.271.81-6.541 1.632C1084.28 673 1084.28 673 1082 673l-1.18 3.773c-2.276 6.836-5.337 13.327-8.324 19.875-2.34 5.25-3.713 9.643-4.496 15.352-1.357 3.882-2.955 7.654-4.562 11.438l-1.288 3.083A1416 1416 0 0 1 1059 734c2.987 0 4.917-.479 7.749-1.358l2.93-.902 3.18-.994 3.32-1.026q5.287-1.636 10.571-3.283l10.317-3.195 6.834-2.118a3740 3740 0 0 1 25.78-7.889A468 468 0 0 0 1143 709a2028 2028 0 0 1 14.387-4.423q2.31-.705 4.617-1.414 3.346-1.028 6.695-2.046l2.084-.644c2.855-.863 5.214-1.473 8.217-1.473-.629 5.123-2.19 9.458-4.113 14.2l-.973 2.442q-1.05 2.635-2.11 5.266c-1.54 3.832-3.067 7.67-4.595 11.506l-2.446 6.134c-4.152 10.408-8.246 20.84-12.331 31.274l-3.764 9.607-5.098 13.01a131562 131562 0 0 1-15.38 39.247 6387 6387 0 0 1-11.745 29.787l-2.123 5.348a3918 3918 0 0 1-3.919 9.825l-1.727 4.346-.786 1.95c-.984 2.486-1.852 4.85-2.332 7.486-.83 3.825-2.528 7.19-4.167 10.732-3.852 8.497-7.336 17.095-10.687 25.8-1.352 3.512-2.715 7.021-4.077 10.53l-2.198 5.67a8634 8634 0 0 1-13.242 33.903l-1.254 3.201a10203 10203 0 0 1-15.69 39.799q-3.16 7.97-6.328 15.935l-2.267 5.709-1.035 2.597c-1.666 4.2-3.191 8.406-4.613 12.696a472 472 0 0 1-3.187 8.172l-.92 2.314q-.956 2.406-1.915 4.81-1.468 3.688-2.923 7.38l-1.868 4.683-.877 2.232c-2.082 5.18-2.082 5.18-4.31 7.409l-.79-1.953c-3.665-8.929-7.627-17.713-11.62-26.499a8829 8829 0 0 1-3.738-8.238q-3.275-7.227-6.555-14.451a32860 32860 0 0 1-10.985-24.234l-1.193-2.635a5219 5219 0 0 1-16.432-36.678c-4.749-10.705-9.499-21.41-14.302-32.092q-.86-1.914-1.715-3.828a529 529 0 0 0-10.625-22.312c-3.666-7.279-7.147-14.64-10.607-22.018l-1.03-2.192c-6.638-14.129-13.112-28.33-19.544-42.553a3274 3274 0 0 0-6.973-15.29l-1.04-2.264-1.036-2.261c-5.802-12.65-11.527-25.322-17.094-38.076a626 626 0 0 0-9.047-19.67c-3.971-8.309-7.757-16.701-11.555-25.091a3434 3434 0 0 0-13.132-28.681 8749 8749 0 0 0-5.909-12.737C845.205 701.9 841.438 693.54 838 685l-.256 2.138c-5.937 48.497-15.34 120.794-52.807 155.987-3.56 2.272-5.706 2.95-9.937 2.875-17.093-7.02-25.124-31.516-31.858-47.24-2.764-6.684-5.14-13.487-7.367-20.367a404 404 0 0 0-1.523-4.61c-9.61-28.547-14.55-58.978-18.252-88.783l-1.241 2.867c-4.535 10.441-9.24 20.797-14.009 31.133l-2.264 4.917-4.462 9.687c-2.621 5.69-5.23 11.387-7.837 17.083-2.607 5.697-5.22 11.39-7.855 17.075a4998 4998 0 0 0-18.582 40.613l-1.23 2.716a4574 4574 0 0 0-16.013 35.818c-5.417 12.252-10.958 24.418-16.804 36.474-3.127 6.46-6.131 12.976-9.14 19.492-3.549 7.68-7.131 15.34-10.83 22.95-7.723 15.896-14.917 32.023-22.135 48.153-3.98 8.888-8.001 17.756-12.023 26.625a5524 5524 0 0 0-18.888 42.085 6479 6479 0 0 1-14.632 32.807l-1.838 4.094q-1.258 2.802-2.522 5.602l-1.437 3.194C531 1091 531 1091 529 1094l-6.738-16.523c-7.349-18.028-7.349-18.028-10.441-26.301-1.417-3.755-2.884-7.49-4.348-11.227l-1.032-2.636a30282 30282 0 0 0-5.787-14.777 69907 69907 0 0 0-20.015-51.059 17247 17247 0 0 1-11.782-30.087q-2.736-7.01-5.477-14.017-1.301-3.331-2.6-6.666-1.806-4.635-3.62-9.27l-1.055-2.717c-2.163-5.516-4.515-10.911-7.02-16.28-1.275-2.868-2.237-5.766-3.186-8.753-2.266-6.77-4.953-13.403-7.524-20.062l-.99-2.571c-5.815-15.088-11.738-30.131-17.696-45.162a12231 12231 0 0 1-19.132-48.604l-2.506-6.401-1.253-3.2a7645 7645 0 0 0-7.759-19.727q-2.542-6.442-5.078-12.888-1.204-3.053-2.413-6.105-1.662-4.2-3.314-8.404l-1-2.512C375 702.341 375 702.341 375 699c8.404 1.41 16.39 3.858 24.5 6.438l7.531 2.37 3.33 1.057q4.07 1.268 8.154 2.485c6.077 1.817 12.129 3.713 18.18 5.61l6.247 1.956q8.868 2.775 17.735 5.553l15.036 4.707q2.887.905 5.776 1.809l3.307 1.035A499 499 0 0 0 495 735q-1.373-3.688-2.75-7.375l-.825-2.212c-1.789-4.778-3.656-9.511-5.663-14.202C485 709 485 709 484.622 706.277c-.685-3.607-1.865-6.56-3.345-9.918l-.802-1.843a1186 1186 0 0 0-2.538-5.766q-1.277-2.902-2.547-5.809-1.148-2.622-2.304-5.239C472 675 472 675 472 673l-2.988-.629c-9.562-2.05-19.046-4.353-28.512-6.808l-3.228-.837a1125 1125 0 0 1-18.553-5.035c-12.636-3.532-25.331-6.843-38.018-10.185q-4.82-1.271-9.639-2.545l-2.92-.767c-4.528-1.198-9.026-2.448-13.503-3.822-3.3-1.002-6.495-1.827-9.92-2.286l-2.61-.367-2.609-.344q-2.64-.359-5.281-.727c-.764-.1-1.528-.202-2.315-.307C330 638 330 638 328 637c-.899-2.033-.899-2.033-1.825-4.755l-1.068-3.103-1.15-3.415-1.213-3.543a2847 2847 0 0 1-2.584-7.587 4158 4158 0 0 0-4.083-11.972q-2.073-6.056-4.14-12.113a4658 4658 0 0 0-11.75-33.95l-1.817-5.202-3.584-10.253q-4.586-13.115-9.161-26.232l-.93-2.662a24549 24549 0 0 1-16.277-46.835 20757 20757 0 0 0-15.837-45.509c-3.58-10.247-7.149-20.498-10.698-30.756l-4.258-12.3-1.078-3.115a5230 5230 0 0 0-14.701-41.858c-7.859-22.08-15.511-44.229-23.113-66.399l-3.503-10.214-.689-2.01a6644 6644 0 0 0-14.116-40.687l-1.76-5.03-.881-2.515c-2.421-6.925-4.811-13.86-7.198-20.798l-3.415-9.906q-1.084-3.148-2.163-6.298c-3.835-11.201-7.8-22.305-12.31-33.255a184 184 0 0 1-7.448-22.025c-2.41-8.522-5.335-16.849-8.28-25.2q-1.482-4.21-2.954-8.425a2875 2875 0 0 0-9.703-27.308l-2.514-6.994a1207 1207 0 0 0-2.381-6.517L118 34.316l-1.25-3.423c-.742-2.862-.806-4.18.25-6.893m58 60a1060 1060 0 0 0 6.688 19.563l.97 2.767q1.17 3.336 2.342 6.67h2l.352 2.637c.646 3.354 1.646 6.058 3.023 9.176 2.601 6.065 4.916 12.046 6.371 18.492 1.547 6.194 3.817 12.144 5.988 18.14q.713 1.978 1.423 3.957 1.898 5.27 3.804 10.54 1.59 4.4 3.174 8.8c6.131 17.01 12.309 34.002 18.592 50.956 5.189 14.01 10.26 28.063 15.335 42.114a8165 8165 0 0 0 21.313 58.313 6505 6505 0 0 1 22.25 61.188c6.951 19.392 13.924 38.776 21 58.125l1.16 3.174a11649 11649 0 0 0 13.254 36.033l5.211 14.105 1.296 3.507a5106 5106 0 0 1 15.79 43.329l.8 2.227q3.886 10.826 7.756 21.657l2.851 7.974 1.947 5.46 1.191 3.33 1.026 2.878L363 602l1.215 3.722c1.488 3.498 1.488 3.498 4.788 4.708l3.67.778 2.008.454q2.1.47 4.208.902c2.028.419 4.043.875 6.06 1.348 4.087.956 8.185 1.86 12.285 2.76q2.244.495 4.488.992 4.648 1.026 9.298 2.046 5.957 1.309 11.912 2.63 4.61 1.02 9.22 2.033l4.396.971q3.053.675 6.107 1.343l3.504.77c2.85.637 2.85.637 5.841.543-2.464-7.898-5.582-15.501-8.722-23.148a2457 2457 0 0 1-17.528-43.977c-4.856-12.51-9.782-24.982-14.88-37.395-4.622-11.268-9.058-22.607-13.49-33.95q-3.466-8.862-6.942-17.717l-1.383-3.526a2490 2490 0 0 0-7.822-19.663c-4.276-10.62-8.403-21.285-12.439-31.997a1212 1212 0 0 0-10.466-26.776c-4.255-10.573-8.342-21.21-12.445-31.842-7.007-18.152-14.158-36.214-21.69-54.155-4.198-10.04-8.18-20.164-12.045-30.338l-.777-2.047-.796-2.095-1.637-4.312-.828-2.178c-5.03-13.224-10.3-26.342-15.645-39.441a2175 2175 0 0 1-12.812-32.15c-2.145-5.498-4.335-10.965-6.643-16.395-2.773-6.533-5.031-13.028-6.955-19.858-2.014-7.077-4.281-14.063-6.618-21.04l-1.14-3.531-1.113-3.281-.983-2.958L255 122a68 68 0 0 0-4-1 109 109 0 0 1-4.46-2.023l-2.677-1.28-2.902-1.404-3.06-1.472c-12.491-6.036-24.882-12.275-37.276-18.508q-6.978-3.51-13.96-7.012l-3.213-1.619-2.93-1.47-2.582-1.299c-1.734-.984-1.734-.984-2.94-.913m1196.372 3.273-2.099 1.054-4.53 2.279q-3.585 1.805-7.175 3.606a19223 19223 0 0 0-20.409 10.256 9180 9180 0 0 1-12.472 6.264q-2.376 1.192-4.75 2.39-3.328 1.677-6.662 3.346l-1.97.999c-2.846 1.42-5.61 2.634-8.635 3.629-2.784.723-2.784.723-4.67 2.904a169 169 0 0 0-2.715 7.719l-.777 2.34q-1.228 3.719-2.446 7.441l-1.63 4.922c-3.106 9.36-3.106 9.36-5.936 18.805-1.775 6.03-4.246 11.798-6.648 17.599-1.471 3.555-2.926 7.117-4.383 10.678l-.895 2.185c-2.733 6.683-5.382 13.397-8.007 20.124a3664 3664 0 0 1-12.75 32.125c-3.744 9.325-7.465 18.654-11 28.062-3.332 8.86-6.887 17.621-10.473 26.381-8.688 21.227-17.119 42.548-25.407 63.933-2.956 7.621-5.93 15.233-8.995 22.811-3.603 8.911-7.017 17.893-10.438 26.875-3.74 9.815-7.496 19.618-11.427 29.358-2.73 6.768-5.41 13.555-8.081 20.346-11.467 29.16-22.962 58.308-34.632 87.385a3280 3280 0 0 0-8.07 20.333l-.974 2.474-3.905 9.932c-4.402 11.192-8.895 22.335-13.619 33.396l-1.132 2.667-.98 2.282c-.796 1.814-.796 1.814-.68 3.827 9.691-1.483 19.246-3.485 28.816-5.59l2.363-.518q6.162-1.352 12.323-2.714a3398 3398 0 0 1 12.71-2.777q4.91-1.07 9.814-2.16 2.343-.516 4.69-1.022a835 835 0 0 0 6.524-1.441l3.747-.823c3.008-.953 4.216-1.426 6.013-3.955 1.075-2.215 1.075-2.215 1.935-4.76l1.07-2.968 1.143-3.249 1.226-3.417c1.11-3.093 2.21-6.189 3.31-9.286 1.164-3.277 2.34-6.55 3.514-9.824l.72-2.005 1.454-4.049q1.109-3.09 2.215-6.18c4.519-12.602 9.143-25.165 13.79-37.721a6135 6135 0 0 0 21.723-59.61c5.935-16.554 11.987-33.063 18.088-49.556A6276 6276 0 0 0 1281.5 353a6627 6627 0 0 1 23.629-64.934c6.408-17.33 12.72-34.69 18.953-52.084 8.424-23.496 17.061-46.912 25.723-70.322l2.15-5.824q1.08-2.934 2.173-5.865l1.09-2.946.975-2.624c.738-2.196 1.262-4.313 1.682-6.589.91-4.551 2.493-8.792 4.125-13.125l.792-2.104c1.025-2.673 2.049-5.284 3.396-7.813 1.09-2.051 1.09-2.051.812-5.77h2q2.222-6.123 4.438-12.25l1.275-3.512 1.22-3.379 1.127-3.11c.767-2.243 1.416-4.44 1.94-6.749-2.515 0-5.375 2.135-7.628 3.273M283 120c1.79 6.28 3.818 12.342 6.313 18.375 3.64 8.95 7.158 17.944 10.648 26.953a3514 3514 0 0 0 16.772 42.523c11.829 29.4 23.494 58.862 34.847 88.45A4515 4515 0 0 0 364.25 329l1.338 3.413c1.572 3.992 3.146 7.972 4.849 11.91 1.679 3.949 3.227 7.932 4.75 11.943l1.85 4.843.97 2.541c5.186 13.582 10.462 27.112 16.001 40.555 3.421 8.327 6.697 16.706 9.93 25.108 7.906 20.534 16.133 40.937 24.401 61.328l2.224 5.484 1.117 2.756a3319 3319 0 0 1 15.394 38.642C461.768 575.127 476.717 612.633 492 650a5570 5570 0 0 1 17.76 43.905q5.314 13.32 10.74 26.595c5.396 13.207 10.697 26.45 15.984 39.702q3.38 8.463 6.766 16.922l2.26 5.654q3.653 9.135 7.314 18.265c4.48 11.177 8.946 22.36 13.36 33.562C577.333 862.908 577.333 862.908 589 891c2.874-4.311 4.953-8.956 7.188-13.625l1.603-3.343c4.549-9.541 8.922-19.158 13.27-28.792 5.182-11.477 10.523-22.872 15.939-34.24a2292 2292 0 0 0 20.215-43.645l.921-2.04c3.429-7.58 6.913-15.135 10.395-22.69 5.99-13 11.908-26.028 17.734-39.102 4.036-9.03 8.21-17.99 12.42-26.94 4.896-10.423 9.603-20.923 14.253-31.458C710.37 628.293 718.108 611.62 726 595l1.397-2.954c4.74-10.019 9.571-19.991 14.447-29.944l1.321-2.7q3.283-6.71 6.58-13.412c4.38-8.927 8.636-17.883 12.58-27.013C765.8 510.985 769.56 503.02 776 497c6.361 2.499 8.957 8.492 11.773 14.332l1.043 2.124c1.068 2.179 2.126 4.361 3.184 6.544l1.919 3.927c1.912 3.916 3.81 7.838 5.706 11.76l2.078 4.294q2.64 5.452 5.274 10.904l2.975 6.148Q815.99 569.509 822 582l1.234 2.562c6.806 14.144 13.25 28.454 19.73 42.75a9302 9302 0 0 0 12.182 26.736q6.527 14.282 13.167 28.515c5.42 11.627 10.72 23.307 16 35 12.229 27.082 24.565 54.112 37.11 81.05q4.044 8.69 8.077 17.387l3.25 7 6.5 14 1.628 3.506 3.223 6.943q3.803 8.199 7.619 16.39l3.6 7.736q1.27 2.728 2.543 5.454l1.555 3.342 1.368 2.935A162 162 0 0 1 964 891c3.155-3.653 4.67-7.72 6.406-12.156l.972-2.442c1.047-2.631 2.084-5.267 3.122-7.902l2.186-5.508a6206 6206 0 0 0 7.135-18.077 9716 9716 0 0 0 5.974-15.223c5.53-14.107 11.18-28.165 16.816-42.23q4.244-10.594 8.475-21.192c15.23-38.128 15.23-38.128 21.896-54.402 4.062-9.934 8.039-19.901 12.018-29.868q9.4-23.54 19-47c13.18-32.23 26.072-64.572 38.738-97.008a3146 3146 0 0 1 15.574-39.054c10.453-25.728 20.768-51.504 30.838-77.385a3637 3637 0 0 1 14.602-36.949c4.8-11.954 9.508-23.945 14.202-35.942a789 789 0 0 1 1.942-4.896c2.874-7.199 5.68-14.425 8.506-21.643l2.414-6.16c4.513-11.509 8.987-23.03 13.374-34.588a1879 1879 0 0 1 9.06-23.312l1.67-4.231c6.48-16.415 13.042-32.8 19.63-49.172a2654 2654 0 0 0 14.211-36.138 1512 1512 0 0 1 12.03-30.33A168 168 0 0 0 1271 120c-9.983 4.814-19.57 9.994-29.011 15.794a416 416 0 0 1-6.462 3.823l-2.285 1.33q-2.17 1.262-4.345 2.515-2.01 1.173-3.99 2.395C1223 147 1223 147 1221.156 147.846c-6.734 3.595-8.18 11.252-10.434 18.03-1.096 3.22-2.34 6.37-3.59 9.534q-.736 1.873-1.468 3.746l-1.54 3.906-.824 2.093c-4.637 11.756-9.378 23.467-14.176 35.158l-1.017 2.479a2760 2760 0 0 1-10.932 26.278c-7.61 18.02-14.745 36.158-21.546 54.498l-.93 2.51-.929 2.503c-3.255 8.757-6.625 17.467-10.021 26.169-.29.746-.582 1.491-.882 2.26A9832 9832 0 0 1 1137 352l-1.5 3.826q-3.345 8.532-6.7 17.059-2.646 6.72-5.279 13.444c-6.438 16.438-12.974 32.835-19.548 49.219-7.946 19.807-15.875 39.62-23.598 59.515-6.632 17.08-13.405 34.102-20.233 51.105q-3.89 9.696-7.763 19.398l-5.772 14.455a4248 4248 0 0 1-12.865 31.87 3980 3980 0 0 0-11.87 29.418c-.26.649-.52 1.298-.786 1.968l-3.188 7.991C1006.745 679.238 995.504 707.171 984 735l-1.045 2.528a9601 9601 0 0 1-8.05 19.406q-2.505 6.026-5.05 12.036a719 719 0 0 0-1.78 4.267c-.928 2.243-1.87 4.48-2.813 6.716l-.856 2.098c-.72 1.687-1.555 3.324-2.406 4.949l-3 1c-3.931-3.58-6.196-6.862-8.418-11.68l-.905-1.941a849 849 0 0 1-2.865-6.254q-1.005-2.18-2.012-4.36a1144 1144 0 0 1-12.226-27.505c-6.214-14.472-12.905-28.735-19.582-42.998a5807 5807 0 0 1-20.554-44.387c-11.845-25.886-11.845-25.886-24.008-51.623a4058 4058 0 0 1-12.555-26.44c-.347-.735-.694-1.471-1.05-2.23-4.413-9.37-8.746-18.77-12.955-28.233-2.451-5.487-5.102-10.848-7.827-16.204-2.794-5.59-5.366-11.283-7.98-16.957-5.15-11.176-10.474-22.256-15.882-33.308-3.918-8.018-7.755-16.064-11.439-24.192l-1.065-2.35a1785 1785 0 0 1-5.01-11.164c-4.354-9.721-9.305-18.972-14.667-28.174h-2c-8.899 15.226-16.153 31.036-23.347 47.108a770 770 0 0 1-15.966 33.454c-4.123 8.16-7.908 16.479-11.718 24.788a563 563 0 0 1-8.938 18.56c-3.595 7.123-6.93 14.342-10.186 21.625A1128 1128 0 0 1 689.5 588.5c-5.986 12.24-11.692 24.59-17.297 37.008l-1.851 4.101-.897 1.987A729 729 0 0 1 662.5 646.5c-4.827 10.067-9.409 20.245-14.01 30.416A2257 2257 0 0 1 636 704a2273 2273 0 0 0-19.142 42.078 8828 8828 0 0 1-7.994 17.98q-1.189 2.673-2.372 5.35a867 867 0 0 1-3.68 8.154l-.987 2.25c-1.922 4.14-3.645 6.275-7.825 8.188-2.333-2.12-3.624-3.967-4.84-6.867l-1.011-2.383-1.087-2.625-1.185-2.818q-1.948-4.65-3.877-9.307l-2.625-6.293a5236 5236 0 0 1-8.477-20.524l-2.774-6.735c-10.396-25.222-20.578-50.527-30.686-75.865a5861 5861 0 0 0-21.813-53.958c-7.779-18.95-15.307-37.99-22.753-57.074-4.11-10.53-8.245-21.041-12.56-31.489-5.006-12.13-9.69-24.378-14.393-36.627-5.755-14.98-11.689-29.881-17.731-44.747-5.73-14.1-11.394-28.213-16.847-42.422a2588 2588 0 0 0-10.527-26.899c-6.13-15.456-12.132-30.959-18.064-46.492-8.705-22.787-17.452-45.539-26.89-68.035-3.638-8.68-7.221-17.384-10.798-26.09l-1.046-2.547a2182 2182 0 0 1-14.406-35.984 1082 1082 0 0 0-9.27-22.996C339 156 339 156 338.273 153.534c-1.713-3.41-3.697-4.41-6.988-6.307l-1.74-1.022a459 459 0 0 0-3.675-2.129 373 373 0 0 1-5.46-3.214c-3.033-1.814-6.075-3.61-9.122-5.4a2110 2110 0 0 1-5.56-3.282c-7.437-4.381-14.944-8.437-22.728-12.18m156 209c3.42 9.533 6.984 19.006 10.773 28.398a761 761 0 0 1 4.985 12.825c6.079 15.979 12.269 31.91 18.625 47.78a11649.276 11649.276 0 0 0 9.35 23.286c5.978 14.847 11.834 29.725 17.474 44.703a980 980 0 0 0 10.346 26.29c1.267 3.087 2.525 6.179 3.784 9.27l1.928 4.73c7.91 19.4 15.597 38.887 23.272 58.38 3.903 9.91 7.851 19.799 11.9 29.65 4.625 11.265 9.079 22.593 13.5 33.938a6475.556 6475.556 0 0 1 11.402 29.426l3.762 9.772c4.735 12.282 9.75 24.44 14.899 36.552 2.55-2.55 3.617-5.42 5-8.687q.923-2.16 1.848-4.32c.506-1.187.506-1.187 1.024-2.396a566 566 0 0 1 3.812-8.527l1.38-3.075a677 677 0 0 1 2.735-6.011l1.26-2.832 1.134-2.5c2.434-8-.68-14.28-3.724-21.629-.47-1.16-.939-2.322-1.422-3.518a1980 1980 0 0 0-3.78-9.258c-2.24-5.463-4.453-10.939-6.673-16.411l-1.464-3.598c-3.883-9.562-7.586-19.184-11.223-28.841-2.345-6.196-4.759-12.365-7.162-18.538q-1.318-3.384-2.632-6.77a2435 2435 0 0 0-9.701-24.555 1668 1668 0 0 1-5.24-13.333c-7.068-18.126-14.515-36.09-22.035-54.033-5.956-14.253-11.672-28.58-17.262-42.98-8.146-21.102-8.146-21.102-16.899-41.957a315 315 0 0 1-2.503-5.926C496.48 383.527 487.119 374.457 478 367h-2l-1-3-2.125-1.687c-4.482-3.606-7.965-8.053-11.668-12.434-2.615-3.054-5.108-5.797-8.207-8.379-3.188-2.656-5.676-5.523-8.29-8.73-1.786-1.849-3.36-2.77-5.71-3.77m672.23 1.54c-4.56 4.644-4.56 4.644-8.793 9.585-1.902 2.244-3.576 3.906-5.812 5.75-5.112 4.245-9.193 9.366-13.375 14.5C1081 363 1081 363 1078 365v2l-1.765.802c-4.02 2.155-7.08 5.379-10.36 8.51l-2.148 1.897c-13.712 13.206-19.488 35.2-26.227 52.541l-2.518 6.418a8159 8159 0 0 0-4.862 12.412 2800 2800 0 0 1-7.495 18.983l-1.132 2.836c-3.394 8.45-6.95 16.83-10.496 25.218-6.445 15.268-12.49 30.69-18.537 46.12a1853 1853 0 0 1-6.648 16.7c-3.188 7.934-6.289 15.901-9.375 23.875-.25.65-.502 1.298-.76 1.966a5389 5389 0 0 0-8.342 21.695q-1.851 4.846-3.707 9.693l-1.877 4.912c-3.57 9.341-7.22 18.64-11.04 27.883l-1.06 2.571a1480 1480 0 0 1-5.08 12.18l-1.817 4.382-.85 1.967c-2.23 5.44-2.75 9.873-.898 15.49.465 1.005.93 2.01 1.408 3.047l1.55 3.41 1.661 3.554 3.305 7.243 1.608 3.495a459 459 0 0 1 5.212 11.888l1.36 3.199L958 724c2.114-2.649 3.608-5.091 4.847-8.241l1.007-2.535 1.068-2.744 1.142-2.89q1.849-4.698 3.686-9.403l2.575-6.542a4875 4875 0 0 0 16.472-42.558 1657 1657 0 0 1 14.288-36.02c4.243-10.365 8.376-20.77 12.477-31.192l4.753-12.068a4680 4680 0 0 1 8.685-21.87l1.442-3.606a3133 3133 0 0 1 8.214-20.288c5.928-14.511 11.79-29.024 17.219-43.73 4.581-12.41 9.45-24.687 14.438-36.938l1.091-2.682 1.092-2.682 2.184-5.366 1.092-2.684c3.772-9.28 7.484-18.582 11.166-27.899l.943-2.386a1370 1370 0 0 0 12.75-33.636 387 387 0 0 1 8.771-21.87c2.163-4.973 3.959-10.002 5.598-15.17-2.14-.219-2.14-.219-3.77 1.54M776 558c-3.3 3.58-5.316 7.374-7.363 11.766l-.937 1.996c-1.011 2.16-2.012 4.324-3.013 6.488l-2.107 4.518c-6.89 14.788-13.635 29.644-20.343 44.515A143 143 0 0 1 740 632c-.406 7.244.128 14.515.77 21.73l.265 2.994c1.035 10.949 2.764 21.759 4.653 32.588l.535 3.105C748.968 708.23 752.111 723.689 757 739l.611 1.931c5.15 16.26 10.417 32.483 17.389 48.069h4c5.06-11.931 9.496-24.034 13.625-36.312l.677-1.987c6.47-19.051 11.177-38.41 14.459-58.253.49-2.95 1-5.896 1.512-8.843 1.695-9.933 3.073-19.846 3.961-29.886l.246-2.77c1.206-14.246 1.206-14.246-3.23-27.511q-1.251-2.484-2.496-4.97l-1.355-2.663c-2.526-5.065-4.856-10.221-7.212-15.367l-3.046-6.602q-2.836-6.158-5.635-12.333-1.236-2.723-2.475-5.442-1.565-3.433-3.11-6.874l-1.425-3.12-1.244-2.752c-1.211-2.24-2.275-3.723-4.252-5.315zM433 751c.63 3.708 1.673 6.94 3.117 10.41l1.325 3.21 1.433 3.442a7273 7273 0 0 1 3.765 9.166 1818 1818 0 0 1 8.423 20.96l1.407 3.521c2.256 5.72 4.23 11.278 5.53 17.291h2v5h2v5h2v5h2l.375 2.063c.716 3.365 1.654 6.637 2.625 9.937h2v5h2v5h2v5h2l.294 1.974c.932 3.996 2.442 7.646 3.995 11.436l1.016 2.507q1.654 4.075 3.32 8.145l2.315 5.695a4167 4167 0 0 0 15.808 38.228c5.209 12.443 10.26 24.94 15.244 37.476 3.378 8.488 6.815 16.952 10.258 25.414l.882 2.168q2.432 5.98 4.868 11.957c3.089-1.544 3.79-4.544 5.125-7.578l.919-2.044q.977-2.178 1.946-4.358c1.688-3.795 3.397-7.58 5.104-11.368l1.022-2.272a871 871 0 0 1 8.384-18.067l1.204-2.52a764 764 0 0 1 7.046-14.23c2.34-4.67 4.612-9.36 6.75-14.125l1.531-3.38c1.844-5.82-.95-10.447-3.426-15.726l-1.04-2.255c-1.121-2.424-2.25-4.844-3.378-7.264l-2.323-5.017a7534 7534 0 0 0-4.665-10.058q-2.924-6.3-5.82-12.613l-1.62-3.527-2.915-6.35-1.328-2.885-1.117-2.428a168 168 0 0 0-2.49-5.038c-3.502-6.79-6.298-13.744-8.999-20.885l-2.142-5.596c-1.24-3.241-2.472-6.485-3.706-9.729q-2.204-5.8-4.421-11.594-1.374-3.59-2.735-7.186a445 445 0 0 0-2.592-6.619 206 206 0 0 1-2.593-6.854c-2.419-6.346-2.419-6.346-7.038-11.11-2.811-1.219-5.544-2.05-8.511-2.812l-3.196-.957c-3.397-1.004-6.809-1.936-10.226-2.867q-3.492-1.012-6.978-2.038-6.81-1.993-13.64-3.91c-7.448-2.098-14.82-4.402-22.195-6.74q-2.92-.914-5.847-1.812l-2.286-.708c-1.815-.566-1.815-.566-3.804-.48m679.366 1.972-2.065.636q-3.391 1.046-6.781 2.099l-4.717 1.458a9618 9618 0 0 0-9.904 3.07q-6.326 1.962-12.656 3.913-4.877 1.506-9.752 3.02-2.33.72-4.663 1.44-3.276 1.012-6.547 2.032l-3.757 1.164c-6.655 1.916-6.655 1.916-11.937 6l-.768 2.04-.923 2.337-.912 2.534-1.023 2.65c-1.094 2.85-2.152 5.71-3.211 8.572a2413 2413 0 0 1-2.256 5.896q-2.245 5.862-4.452 11.74a1516 1516 0 0 1-6.766 17.677 768 768 0 0 0-2.525 6.568c-2.504 6.484-5.419 12.655-8.565 18.843-4.106 8.09-7.86 16.336-11.624 24.589l-2.237 4.902q-1.653 3.62-3.303 7.242-3.035 6.66-6.159 13.278l-1.309 2.804a398 398 0 0 1-2.306 4.853c-1.906 4.122-2.442 6.327-1.248 10.671.694 1.817 1.44 3.615 2.223 5.395l1.384 3.15 1.456 3.268 1.373 3.138c2.95 6.67 6.11 13.207 9.397 19.715 4.174 8.285 8.1 16.687 12.042 25.084l3.415 7.258q1.05 2.23 2.097 4.46c1.502 3.196 3.011 6.385 4.613 9.532 2.337-2.337 3.017-4.207 4.223-7.281l1.356-3.427.728-1.862c1.323-3.38 2.664-6.752 4.002-10.125l.878-2.22c3.764-9.506 7.6-18.983 11.438-28.46l1.12-2.768c4.02-9.93 8.052-19.852 12.193-29.732a5450 5450 0 0 0 13.427-32.378q1.255-3.048 2.516-6.092 1.773-4.288 3.533-8.58l1.097-2.64.995-2.436.878-2.13c.772-2.016.772-2.016.616-4.869l2-1v-4l2-1v-4l2-1v-4l2-1c.907-1.778.907-1.778 1.625-3.875.26-.699.52-1.397.79-2.117.725-2.14.725-2.14.585-5.008l2-1v-4l2-1v-4l2-1v-4l2-1c.631-1.705.631-1.705 1.125-3.875 1.502-5.343 3.568-10.346 5.75-15.437 2.695-6.296 5.284-12.602 7.695-19.012a444 444 0 0 1 3.735-9.258l1.248-3.012q1.245-2.994 2.501-5.981l1.153-2.777 1.046-2.494c.91-2.246.91-2.246.747-5.154-3.063 0-5.71 1.069-8.634 1.972"/><path fill="#F8F9F9" d="M1437 23h2l-1 2zM115 23l2 1-2 1z"/><path fill="#7A7B7F" d="m1098 711 2 1ZM454 711l2 1Z"/><path fill="#ECEDEF" d="m1439 22 2 1ZM113 22l2 1ZM1441 21l2 1ZM111 21l2 1Z"/></svg>