<svg
  xmlns="http://www.w3.org/2000/svg"
  viewBox="0 0 64 64"
  width="64"
  height="64"
>
  <!-- 背景 -->
  <path
    d="
      M13.75 0
      H50.25
      A13.75 13.75 0 0 1 64 13.75
      V50.25
      A13.75 13.75 0 0 1 50.25 64
      H13.75
      A13.75 13.75 0 0 1 0 50.25
      V13.75
      A13.75 13.75 0 0 1 13.75 0
      Z
    "
    fill="#000000"
  />

  <!-- K -->
  <path
    d="
      M15 21.25
      L15 44.75
      L21.25 44.75
      L21.25 35.375
      L29 44.75
      L36.125 44.75
      L25.5 34
      L36.125 21.25
      L29 21.25
      L21.25 30
      L21.25 21.25
      Z
    "
    fill="#FFFFFF"
  />

  <!-- i -->
  <path
    d="
      M39.25 34
      L39.25 44.75
      L41.75 44.75
      L41.75 34
      Z
      M39.25 30.25
      L39.25 32
      L41.75 32
      L41.75 30.25
      Z
    "
    fill="#FFFFFF"
  />

  <!-- l -->
  <path
    d="
      M43.75 34
      L43.75 44.75
      L46.25 44.75
      L46.25 34
      Z
    "
    fill="#FFFFFF"
  />

  <!-- o -->
  <path
    d="
      M48.75 34
      L56.125 34
      L56.125 44.75
      L48.75 44.75
      Z
    "
    fill="#FFFFFF"
  />
</svg>
