<?xml version="1.0" standalone="no"?><!DOCTYPE svg PUBLIC "-//W3C//DTD SVG 1.1//EN" "http://www.w3.org/Graphics/SVG/1.1/DTD/svg11.dtd"><svg t="1768633077745" class="icon" viewBox="0 0 1024 1024" version="1.1" xmlns="http://www.w3.org/2000/svg" p-id="18390" xmlns:xlink="http://www.w3.org/1999/xlink" width="200" height="200"><path d="M938.788571 82.505143L568.905143 357.229714l68.388571-162.084571 301.494857-112.64z" fill="#E2761B" p-id="18391"></path><path d="M84.845714 82.505143l366.957715 277.284571-65.097143-164.644571-301.787429-112.64zM805.668571 719.286857l-98.523428 150.893714 210.797714 58.002286 60.635429-205.531428-172.909715-3.364572zM45.860571 722.651429l60.196572 205.531428 210.797714-58.002286-98.523428-150.893714-172.470858 3.364572z" fill="#E4761B" p-id="18392"></path><path d="M305.005714 464.237714l-58.806857 88.868572 209.334857 9.289143-7.460571-224.914286-143.140572 126.756571zM718.701714 464.310857L573.732571 334.921143l-4.827428 227.474286 208.896-9.289143-59.099429-88.795429zM316.854857 870.180571l125.659429-61.293714-108.544-84.845714-17.115429 146.139428zM581.12 808.886857l126.025143 61.293714L689.737143 724.114286l-108.544 84.772571z" fill="#E4761B" p-id="18393"></path><path d="M707.218286 870.253714l-126.025143-61.366857 10.020571 82.139429-1.097143 34.596571 117.028572-55.369143zM316.854857 870.253714l117.101714 55.369143-0.731428-34.596571 9.289143-82.139429-125.659429 61.366857z" fill="#D7C1B3" p-id="18394"></path><path d="M435.785143 669.842286l-104.813714-30.866286 73.947428-33.792 30.866286 64.658286zM587.849143 669.842286l30.793143-64.658286 74.386285 33.792-105.179428 30.866286z" fill="#233447" p-id="18395"></path><path d="M316.854857 870.180571l17.846857-150.893714-116.370285 3.364572 98.523428 147.529142zM689.298286 719.286857l17.846857 150.893714 98.523428-147.529142-116.297142-3.364572zM777.801143 553.106286l-208.969143 9.289143 19.382857 107.446857 30.793143-64.658286 74.386286 33.792 84.406857-85.869714zM330.971429 638.976l74.313142-33.792 30.500572 64.658286 19.748571-107.446857-209.334857-9.289143 84.772572 85.869714z" fill="#CD6116" p-id="18396"></path><path d="M246.198857 553.106286l87.771429 171.008-2.998857-85.138286-84.772572-85.869714zM693.394286 638.976L689.737143 724.114286l88.064-171.008L693.394286 638.976zM455.460571 562.395429l-19.675428 107.446857 24.502857 126.756571 5.632-166.912-10.459429-67.291428zM568.905143 562.395429l-10.020572 66.925714 4.388572 167.277714 24.941714-126.756571-19.309714-107.446857z" fill="#E4751F" p-id="18397"></path><path d="M588.214857 669.842286l-24.868571 126.756571 17.773714 12.288L689.737143 724.114286l3.730286-85.138286-105.179429 30.866286zM330.971429 638.976l2.925714 85.138286L442.514286 808.96l17.846857-12.288-24.576-126.756571-104.813714-30.866286z" fill="#F6851B" p-id="18398"></path><path d="M590.116571 925.622857l1.097143-34.596571-9.289143-8.192H441.782857l-8.557714 8.192 0.731428 34.596571-117.101714-55.369143 40.96 33.426286 82.797714 57.636571h142.409143l83.236572-57.636571 40.96-33.426286-117.101715 55.369143z" fill="#C0AD9E" p-id="18399"></path><path d="M581.12 808.886857l-17.846857-12.288H460.288l-17.846857 12.288-9.289143 82.139429 8.557714-8.192h140.141715l9.289142 8.192-10.020571-82.139429z" fill="#161616" p-id="18400"></path><path d="M954.368 375.076571l31.597714-151.698285-47.250285-140.873143-357.595429 265.435428 137.508571 116.297143 194.486858 56.905143 43.154285-50.176-18.651428-13.385143 29.769143-27.136-23.04-17.846857 29.696-22.674286-19.675429-14.848zM38.034286 223.378286l31.597714 151.698285-20.041143 14.848 29.696 22.674286-22.674286 17.846857 29.769143 27.136-18.578285 13.385143 42.715428 50.176 194.413714-56.832 137.508572-116.370286-357.595429-265.508571-46.811428 140.946286z" fill="#763D16" p-id="18401"></path><path d="M913.115429 521.142857l-194.413715-56.832 59.099429 88.795429L689.664 724.114286l116.004571-1.462857h172.836572l-65.389714-201.508572zM305.005714 464.310857l-194.486857 56.832L45.860571 722.651429h172.470858l115.565714 1.462857-87.698286-171.008 58.733714-88.795429zM568.832 562.468571l12.288-214.528 56.539429-152.795428h-250.88l55.661714 152.795428 13.019428 214.454858 4.461715 67.657142 0.365714 166.546286h102.985143l0.731428-166.546286 4.827429-67.657142z" fill="#F6851B" p-id="18402"></path></svg>