<?xml version="1.0" standalone="no"?><!DOCTYPE svg PUBLIC "-//W3C//DTD SVG 1.1//EN" "http://www.w3.org/Graphics/SVG/1.1/DTD/svg11.dtd"><svg t="1768632583835" class="icon" viewBox="0 0 1231 1024" version="1.1" xmlns="http://www.w3.org/2000/svg" p-id="5309" xmlns:xlink="http://www.w3.org/1999/xlink" width="240.4296875" height="200"><path d="M145.509777 1024c156.921249 0 274.849493-136.470329 345.227164-244.310199-8.559643 23.859408-13.316154 47.716738-13.316154 70.62069 0 62.987424 36.141176 107.83987 107.468073 107.83987 97.957128 0 202.571294-85.889298 256.780982-178.46056-3.805209 13.36185-5.705736 25.768243-5.705737 37.219181 0 43.899067 24.72555 71.576146 75.132106 71.576146 158.823854 0 318.596933-281.529379 318.596933-527.746337C1229.693144 168.916381 1132.687318 0 889.222491 0 461.25488 0 0 522.975286 0 860.808049 0 993.460706 71.326897 1024 145.509777 1024zM741.808032 339.743675c0-47.716738 26.630231-81.118247 65.621161-81.118247 38.041704 0 64.671935 33.401509 64.671935 81.118247 0 47.716738-26.630231 82.071627-64.671935 82.071627-38.990929 0-65.62116-34.354888-65.621161-82.071627z m203.522597 0c0-47.716738 26.630231-81.118247 65.62116-81.118247 38.041704 0 64.671935 33.401509 64.671935 81.118247 0 47.716738-26.630231 82.071627-64.671935 82.071627-38.990929 0-65.62116-34.354888-65.62116-82.071627z" fill="#AB9FF2" p-id="5310"></path></svg>